<svg xmlns="http://www.w3.org/2000/svg" xmlns:xlink="http://www.w3.org/1999/xlink" width="500" zoomAndPan="magnify" viewBox="0 0 375 374.999991" height="500" preserveAspectRatio="xMidYMid meet" version="1.0"><defs><g/><clipPath id="c6b577b6ff"><path d="M 62 22 L 321 22 L 321 182.566406 L 62 182.566406 Z M 62 22 " clip-rule="nonzero"/></clipPath><clipPath id="dd07a426db"><path d="M 77.816406 164.785156 L 297.183594 164.785156 L 297.183594 211 L 77.816406 211 Z M 77.816406 164.785156 " clip-rule="nonzero"/></clipPath><clipPath id="bedb467aaa"><path d="M 62 192.550781 L 321 192.550781 L 321 353 L 62 353 Z M 62 192.550781 " clip-rule="nonzero"/></clipPath></defs><g clip-path="url(#c6b577b6ff)"><path fill="#000000" d="M 262.714844 187.796875 C 261.511719 188.921875 260.207031 189.886719 258.859375 190.667969 C 257.351562 191.539062 255.71875 192.214844 253.871094 192.730469 L 253.855469 192.730469 C 252 193.242188 250.101562 193.507812 248.183594 193.507812 C 240.578125 193.507812 233.492188 189.425781 229.707031 182.863281 C 228.261719 180.363281 227.355469 177.660156 227.003906 174.828125 C 226.808594 173.1875 226.816406 171.449219 227.023438 169.683594 C 227.832031 162.914062 231.652344 157.09375 237.511719 153.71875 C 242.46875 150.859375 248.507812 150.117188 254.007812 151.6875 L 254.019531 151.6875 C 257.289062 152.617188 260.332031 154.335938 262.796875 156.65625 L 264.03125 157.808594 L 320.246094 97.847656 L 240.0625 116.589844 L 240.4375 118.230469 C 240.804688 119.839844 240.992188 121.449219 240.992188 122.996094 C 240.992188 124.742188 240.753906 126.546875 240.289062 128.351562 L 240.289062 128.363281 C 237.851562 137.765625 229.363281 144.339844 219.660156 144.339844 C 216.683594 144.339844 213.804688 143.730469 211.085938 142.519531 C 209.667969 141.90625 208.285156 141.097656 206.945312 140.105469 C 201.46875 136.019531 198.320312 129.796875 198.320312 122.996094 C 198.320312 117.132812 200.671875 111.671875 204.925781 107.59375 C 207.390625 105.238281 210.402344 103.484375 213.652344 102.539062 L 215.296875 102.054688 L 191.332031 22.910156 L 167.304688 102.222656 L 168.9375 102.707031 C 170.554688 103.183594 172.082031 103.835938 173.449219 104.632812 C 174.945312 105.492188 176.347656 106.574219 177.640625 107.820312 C 184.671875 114.636719 186.164062 125.308594 181.257812 133.785156 C 179.800781 136.324219 177.859375 138.5 175.484375 140.257812 C 174.292969 141.132812 172.976562 141.898438 171.550781 142.539062 C 165.40625 145.328125 157.980469 144.972656 152.136719 141.59375 C 147.042969 138.640625 143.464844 133.871094 142.082031 128.148438 L 142.074219 128.132812 C 141.28125 124.816406 141.28125 121.335938 142.082031 118.046875 L 142.492188 116.394531 L 62.027344 97.59375 L 118.667969 158.019531 L 119.902344 156.851562 C 121.09375 155.734375 122.410156 154.742188 123.792969 153.9375 C 125.308594 153.074219 126.910156 152.402344 128.71875 151.898438 L 128.726562 151.890625 C 130.59375 151.375 132.519531 151.113281 134.46875 151.113281 C 142.074219 151.113281 149.15625 155.183594 152.953125 161.742188 C 154.410156 164.273438 155.324219 167.050781 155.65625 169.976562 C 155.828125 171.457031 155.835938 172.996094 155.671875 174.550781 C 154.980469 181.382812 151.035156 187.488281 145.140625 190.898438 C 140.148438 193.777344 134.058594 194.511719 128.515625 192.882812 L 128.480469 192.875 C 125.21875 191.917969 122.199219 190.171875 119.761719 187.84375 L 118.527344 186.671875 L 62.054688 246.917969 L 142.628906 228.078125 L 142.246094 226.445312 C 141.871094 224.824219 141.671875 223.203125 141.671875 221.605469 C 141.671875 219.867188 141.902344 218.144531 142.355469 216.332031 L 142.363281 216.304688 C 144.78125 206.855469 153.269531 200.273438 163.003906 200.273438 C 165.84375 200.273438 168.617188 200.824219 171.226562 201.90625 C 172.683594 202.527344 174.125 203.339844 175.507812 204.351562 C 181.027344 208.355469 184.339844 214.804688 184.339844 221.605469 C 184.339844 227.410156 182.046875 232.832031 177.871094 236.878906 C 175.441406 239.261719 172.425781 241.042969 169.175781 242.015625 L 167.566406 242.507812 L 191.335938 321.039062 L 215.164062 242.339844 L 213.574219 241.847656 C 212 241.363281 210.527344 240.726562 209.207031 239.949219 C 207.675781 239.074219 206.21875 237.945312 204.878906 236.628906 L 204.871094 236.621094 C 197.984375 229.808594 196.554688 219.203125 201.390625 210.816406 C 202.820312 208.332031 204.714844 206.1875 206.972656 204.460938 C 208.300781 203.480469 209.804688 202.617188 211.472656 201.902344 C 217.605469 199.265625 224.769531 199.675781 230.53125 203 C 235.539062 205.886719 239.09375 210.578125 240.539062 216.214844 C 241.378906 219.519531 241.421875 223.023438 240.652344 226.324219 L 240.261719 227.972656 L 320.234375 246.648438 L 263.945312 186.652344 Z M 260.550781 193.585938 C 261.644531 192.9375 262.726562 192.203125 263.742188 191.359375 L 306.15625 236.601562 L 284.570312 224.128906 L 257.351562 195.121094 C 258.46875 194.675781 259.539062 194.171875 260.550781 193.585938 Z M 206.746094 171.976562 C 206.746094 180.464844 199.839844 187.367188 191.351562 187.367188 C 182.859375 187.367188 175.960938 180.464844 175.960938 171.976562 C 175.960938 163.488281 182.859375 156.578125 191.351562 156.578125 C 199.839844 156.578125 206.746094 163.488281 206.746094 171.976562 Z M 263.847656 153.082031 C 261.921875 151.511719 259.777344 150.242188 257.484375 149.3125 L 284.605469 120.371094 L 306.195312 107.898438 Z M 304.511719 104.980469 L 282.90625 117.464844 L 244.097656 126.53125 C 244.277344 125.34375 244.371094 124.160156 244.371094 122.992188 C 244.371094 121.730469 244.257812 120.425781 244.046875 119.125 Z M 204.628906 103.410156 L 193.007812 65.046875 L 193.007812 40.105469 L 211.097656 99.839844 C 208.78125 100.703125 206.582031 101.910156 204.628906 103.410156 Z M 171.5 100.011719 L 189.640625 40.105469 L 189.640625 65.050781 L 177.953125 103.628906 C 177.058594 102.917969 176.113281 102.277344 175.140625 101.710938 C 173.992188 101.066406 172.789062 100.496094 171.5 100.007812 Z M 138.308594 126.316406 L 99.359375 117.195312 L 77.761719 104.738281 L 138.457031 118.917969 C 138.042969 121.347656 137.996094 123.847656 138.308594 126.316406 Z M 122.101562 151.019531 C 120.964844 151.691406 119.867188 152.441406 118.851562 153.285156 L 76.074219 107.65625 L 97.679688 120.125 L 125.238281 149.515625 C 124.140625 149.953125 123.089844 150.453125 122.101562 151.019531 Z M 118.691406 191.421875 C 120.601562 193 122.738281 194.28125 125.042969 195.234375 L 97.695312 224.390625 L 76.109375 236.855469 Z M 77.78125 239.777344 L 99.394531 227.300781 L 138.550781 218.144531 C 138.382812 219.3125 138.292969 220.464844 138.292969 221.605469 C 138.292969 222.914062 138.40625 224.238281 138.628906 225.554688 Z M 178.183594 241.074219 L 189.644531 278.90625 L 189.644531 303.84375 L 171.738281 244.710938 C 174.042969 243.824219 176.226562 242.59375 178.183594 241.074219 Z M 210.96875 244.535156 L 193.007812 303.847656 L 193.007812 278.902344 L 204.535156 240.839844 C 205.480469 241.621094 206.480469 242.292969 207.503906 242.878906 C 208.597656 243.507812 209.753906 244.058594 210.964844 244.535156 Z M 244.308594 218.042969 L 282.875 227.046875 L 304.496094 239.53125 L 244.238281 225.441406 C 244.636719 223.011719 244.667969 220.492188 244.308594 218.042969 Z M 244.308594 218.042969 " fill-opacity="1" fill-rule="nonzero"/></g><g clip-path="url(#dd07a426db)"><path fill="#000000" d="M 77.816406 164.785156 L 297.1875 164.785156 L 297.1875 210.96875 L 77.816406 210.96875 Z M 77.816406 164.785156 " fill-opacity="1" fill-rule="nonzero"/></g><g clip-path="url(#bedb467aaa)"><path fill="#000000" d="M 262.714844 187.183594 C 261.511719 186.0625 260.207031 185.09375 258.859375 184.3125 C 257.351562 183.441406 255.71875 182.769531 253.871094 182.25 L 253.855469 182.25 C 252 181.738281 250.101562 181.472656 248.183594 181.472656 C 240.578125 181.472656 233.492188 185.558594 229.707031 192.121094 C 228.261719 194.617188 227.355469 197.320312 227.003906 200.152344 C 226.808594 201.796875 226.816406 203.53125 227.023438 205.296875 C 227.832031 212.070312 231.652344 217.890625 237.511719 221.261719 C 242.46875 224.121094 248.507812 224.863281 254.007812 223.292969 L 254.019531 223.292969 C 257.289062 222.363281 260.332031 220.648438 262.796875 218.324219 L 264.03125 217.175781 L 320.246094 277.132812 L 240.0625 258.394531 L 240.4375 256.75 C 240.804688 255.144531 240.992188 253.53125 240.992188 251.988281 C 240.992188 250.242188 240.753906 248.433594 240.289062 246.632812 L 240.289062 246.617188 C 237.851562 237.214844 229.363281 230.644531 219.660156 230.644531 C 216.683594 230.644531 213.804688 231.25 211.085938 232.460938 C 209.667969 233.074219 208.285156 233.886719 206.945312 234.878906 C 201.46875 238.960938 198.320312 245.1875 198.320312 251.988281 C 198.320312 257.851562 200.671875 263.308594 204.925781 267.386719 C 207.390625 269.742188 210.402344 271.496094 213.652344 272.441406 L 215.296875 272.929688 L 191.332031 352.070312 L 167.304688 272.757812 L 168.9375 272.273438 C 170.554688 271.796875 172.082031 271.144531 173.449219 270.347656 C 174.945312 269.492188 176.347656 268.40625 177.640625 267.164062 C 184.671875 260.34375 186.164062 249.671875 181.257812 241.199219 C 179.800781 238.660156 177.859375 236.480469 175.484375 234.722656 C 174.292969 233.847656 172.976562 233.082031 171.550781 232.445312 C 165.40625 229.65625 157.980469 230.007812 152.136719 233.386719 C 147.042969 236.339844 143.464844 241.113281 142.082031 246.835938 L 142.074219 246.851562 C 141.28125 250.164062 141.28125 253.648438 142.082031 256.9375 L 142.492188 258.585938 L 62.027344 277.390625 L 118.667969 216.964844 L 119.902344 218.128906 C 121.09375 219.246094 122.410156 220.242188 123.792969 221.042969 C 125.308594 221.90625 126.910156 222.582031 128.71875 223.085938 L 128.726562 223.09375 C 130.59375 223.609375 132.519531 223.871094 134.46875 223.871094 C 142.074219 223.871094 149.15625 219.800781 152.953125 213.238281 C 154.410156 210.710938 155.324219 207.929688 155.65625 205.007812 C 155.828125 203.523438 155.835938 201.988281 155.671875 200.433594 C 154.980469 193.601562 151.035156 187.492188 145.140625 184.085938 C 140.148438 181.203125 134.058594 180.472656 128.515625 182.101562 L 128.480469 182.109375 C 125.21875 183.066406 122.199219 184.808594 119.761719 187.136719 L 118.527344 188.308594 L 62.054688 128.0625 L 142.628906 146.902344 L 142.246094 148.539062 C 141.871094 150.15625 141.671875 151.777344 141.671875 153.375 C 141.671875 155.113281 141.902344 156.839844 142.355469 158.652344 L 142.363281 158.679688 C 144.78125 168.125 153.269531 174.710938 163.003906 174.710938 C 165.84375 174.710938 168.617188 174.160156 171.226562 173.074219 C 172.683594 172.453125 174.125 171.644531 175.507812 170.628906 C 181.027344 166.628906 184.339844 160.179688 184.339844 153.375 C 184.339844 147.570312 182.046875 142.152344 177.871094 138.105469 C 175.441406 135.71875 172.425781 133.9375 169.175781 132.96875 L 167.566406 132.472656 L 191.335938 53.941406 L 215.164062 132.640625 L 213.574219 133.132812 C 212 133.617188 210.527344 134.257812 209.207031 135.03125 C 207.675781 135.90625 206.21875 137.035156 204.878906 138.355469 L 204.871094 138.363281 C 197.984375 145.171875 196.554688 155.78125 201.390625 164.164062 C 202.820312 166.648438 204.714844 168.792969 206.972656 170.519531 C 208.300781 171.5 209.804688 172.363281 211.472656 173.082031 C 217.605469 175.714844 224.769531 175.304688 230.53125 171.980469 C 235.539062 169.09375 239.09375 164.402344 240.539062 158.769531 C 241.378906 155.460938 241.421875 151.957031 240.652344 148.660156 L 240.261719 147.011719 L 320.234375 128.332031 L 263.945312 188.332031 Z M 260.550781 181.394531 C 261.644531 182.042969 262.726562 182.777344 263.742188 183.621094 L 306.15625 138.378906 L 284.570312 150.851562 L 257.351562 179.863281 C 258.46875 180.304688 259.539062 180.808594 260.550781 181.394531 Z M 206.746094 203.003906 C 206.746094 194.515625 199.839844 187.613281 191.351562 187.613281 C 182.859375 187.613281 175.960938 194.515625 175.960938 203.003906 C 175.960938 211.492188 182.859375 218.402344 191.351562 218.402344 C 199.839844 218.402344 206.746094 211.492188 206.746094 203.003906 Z M 263.847656 221.898438 C 261.921875 223.472656 259.777344 224.742188 257.484375 225.671875 L 284.605469 254.613281 L 306.195312 267.085938 Z M 304.511719 270 L 282.90625 257.519531 L 244.097656 248.449219 C 244.277344 249.636719 244.371094 250.820312 244.371094 251.992188 C 244.371094 253.25 244.257812 254.554688 244.046875 255.859375 Z M 204.628906 271.570312 L 193.007812 309.9375 L 193.007812 334.875 L 211.097656 275.144531 C 208.78125 274.28125 206.582031 273.070312 204.628906 271.570312 Z M 171.5 274.972656 L 189.640625 334.875 L 189.640625 309.929688 L 177.953125 271.351562 C 177.058594 272.0625 176.113281 272.703125 175.140625 273.269531 C 173.992188 273.914062 172.789062 274.488281 171.5 274.972656 Z M 138.308594 248.667969 L 99.359375 257.785156 L 77.761719 270.242188 L 138.457031 256.066406 C 138.042969 253.632812 137.996094 251.136719 138.308594 248.667969 Z M 122.101562 223.960938 C 120.964844 223.292969 119.867188 222.542969 118.851562 221.699219 L 76.074219 267.324219 L 97.679688 254.855469 L 125.238281 225.46875 C 124.140625 225.03125 123.089844 224.527344 122.101562 223.964844 Z M 118.691406 183.558594 C 120.601562 181.980469 122.738281 180.703125 125.042969 179.746094 L 97.695312 150.59375 L 76.109375 138.125 Z M 77.78125 135.207031 L 99.394531 147.679688 L 138.550781 156.835938 C 138.382812 155.671875 138.292969 154.519531 138.292969 153.375 C 138.292969 152.066406 138.40625 150.746094 138.628906 149.425781 Z M 178.183594 133.90625 L 189.644531 96.074219 L 189.644531 71.136719 L 171.738281 130.273438 C 174.042969 131.15625 176.226562 132.390625 178.183594 133.90625 Z M 210.96875 130.445312 L 193.007812 71.136719 L 193.007812 96.082031 L 204.535156 134.144531 C 205.480469 133.359375 206.480469 132.691406 207.503906 132.101562 C 208.597656 131.472656 209.753906 130.921875 210.964844 130.445312 Z M 244.308594 156.9375 L 282.875 147.933594 L 304.496094 135.453125 L 244.238281 149.542969 C 244.636719 151.972656 244.667969 154.488281 244.308594 156.9375 Z M 244.308594 156.9375 " fill-opacity="1" fill-rule="nonzero"/></g><g fill="#ffffff" fill-opacity="1"><g transform="translate(95.565697, 200.745432)"><g><path d="M 20.6875 -27.3125 L 20.6875 -22.578125 L 15.046875 -22.578125 L 15.046875 -4.75 L 20.6875 -4.75 L 20.6875 0 L 2.953125 0 L 2.953125 -4.75 L 8.59375 -4.75 L 8.59375 -22.578125 L 2.953125 -22.578125 L 2.953125 -27.3125 Z M 20.6875 -27.3125 "/></g></g></g><g fill="#ffffff" fill-opacity="1"><g transform="translate(127.606027, 200.745432)"><g><path d="M 11.9375 -5.046875 L 17.078125 -27.3125 L 23.703125 -27.3125 L 15.828125 0 L 7.828125 0 L -0.015625 -27.3125 L 6.84375 -27.3125 Z M 11.9375 -5.046875 "/></g></g></g><g fill="#ffffff" fill-opacity="1"><g transform="translate(159.646357, 200.745432)"><g><path d="M 15.765625 -5.890625 L 7.765625 -5.890625 L 6.328125 0 L -0.4375 0 L 7.921875 -27.3125 L 15.765625 -27.3125 L 24.109375 0 L 17.203125 0 Z M 8.78125 -10.578125 L 14.703125 -10.578125 L 11.75 -22.65625 Z M 8.78125 -10.578125 "/></g></g></g><g fill="#ffffff" fill-opacity="1"><g transform="translate(191.68669, 200.745432)"><g><path d="M 13.75 0 L 6.5625 -21.96875 C 6.65625 -21.375 6.753906 -20.660156 6.859375 -19.828125 C 6.972656 -18.992188 7.082031 -18.066406 7.1875 -17.046875 C 7.289062 -16.035156 7.375 -14.957031 7.4375 -13.8125 C 7.507812 -12.664062 7.546875 -11.5 7.546875 -10.3125 L 7.546875 0 L 2.046875 0 L 2.046875 -27.3125 L 10.109375 -27.3125 L 17.078125 -5.453125 C 16.929688 -6.285156 16.78125 -7.273438 16.625 -8.421875 C 16.476562 -9.566406 16.351562 -10.847656 16.25 -12.265625 C 16.144531 -13.691406 16.09375 -15.21875 16.09375 -16.84375 L 16.09375 -27.3125 L 21.59375 -27.3125 L 21.59375 0 Z M 13.75 0 "/></g></g></g><g fill="#ffffff" fill-opacity="1"><g transform="translate(223.727017, 200.745432)"><g><path d="M 22.75 -13.671875 C 22.75 -10.785156 22.335938 -8.265625 21.515625 -6.109375 C 20.691406 -3.960938 19.46875 -2.296875 17.84375 -1.109375 C 16.21875 0.078125 14.210938 0.671875 11.828125 0.671875 C 9.441406 0.671875 7.4375 0.09375 5.8125 -1.0625 C 4.1875 -2.226562 2.957031 -3.878906 2.125 -6.015625 C 1.300781 -8.160156 0.890625 -10.710938 0.890625 -13.671875 C 0.890625 -16.566406 1.300781 -19.082031 2.125 -21.21875 C 2.957031 -23.363281 4.1875 -25.03125 5.8125 -26.21875 C 7.4375 -27.40625 9.441406 -28 11.828125 -28 C 14.210938 -28 16.21875 -27.421875 17.84375 -26.265625 C 19.46875 -25.109375 20.691406 -23.457031 21.515625 -21.3125 C 22.335938 -19.175781 22.75 -16.628906 22.75 -13.671875 Z M 16.140625 -13.671875 C 16.140625 -17.035156 15.800781 -19.476562 15.125 -21 C 14.457031 -22.53125 13.359375 -23.296875 11.828125 -23.296875 C 10.285156 -23.296875 9.175781 -22.53125 8.5 -21 C 7.832031 -19.46875 7.5 -17.023438 7.5 -13.671875 C 7.5 -10.304688 7.84375 -7.863281 8.53125 -6.34375 C 9.21875 -4.820312 10.316406 -4.0625 11.828125 -4.0625 C 13.398438 -4.0625 14.507812 -4.832031 15.15625 -6.375 C 15.8125 -7.914062 16.140625 -10.347656 16.140625 -13.671875 Z M 16.140625 -13.671875 "/></g></g></g><g fill="#ffffff" fill-opacity="1"><g transform="translate(255.767354, 200.745432)"><g><path d="M 22.375 -7.984375 C 22.375 -6.285156 21.929688 -4.785156 21.046875 -3.484375 C 20.160156 -2.179688 18.890625 -1.160156 17.234375 -0.421875 C 15.578125 0.304688 13.585938 0.671875 11.265625 0.671875 C 8.691406 0.671875 6.535156 0.296875 4.796875 -0.453125 C 3.054688 -1.210938 1.613281 -2.148438 0.46875 -3.265625 L 3.75 -6.890625 C 4.757812 -6.015625 5.875 -5.335938 7.09375 -4.859375 C 8.3125 -4.378906 9.648438 -4.140625 11.109375 -4.140625 C 12.015625 -4.140625 12.804688 -4.269531 13.484375 -4.53125 C 14.171875 -4.789062 14.703125 -5.171875 15.078125 -5.671875 C 15.460938 -6.171875 15.65625 -6.773438 15.65625 -7.484375 C 15.65625 -8.148438 15.503906 -8.710938 15.203125 -9.171875 C 14.898438 -9.640625 14.390625 -10.054688 13.671875 -10.421875 C 12.960938 -10.785156 11.972656 -11.160156 10.703125 -11.546875 C 8.566406 -12.203125 6.851562 -12.921875 5.5625 -13.703125 C 4.269531 -14.492188 3.332031 -15.410156 2.75 -16.453125 C 2.164062 -17.492188 1.875 -18.703125 1.875 -20.078125 C 1.875 -21.742188 2.335938 -23.164062 3.265625 -24.34375 C 4.191406 -25.53125 5.4375 -26.4375 7 -27.0625 C 8.5625 -27.6875 10.28125 -28 12.15625 -28 C 14.269531 -28 16.132812 -27.691406 17.75 -27.078125 C 19.363281 -26.472656 20.765625 -25.601562 21.953125 -24.46875 L 18.890625 -20.96875 C 17.972656 -21.738281 16.984375 -22.3125 15.921875 -22.6875 C 14.859375 -23.0625 13.773438 -23.25 12.671875 -23.25 C 11.859375 -23.25 11.140625 -23.144531 10.515625 -22.9375 C 9.898438 -22.738281 9.421875 -22.441406 9.078125 -22.046875 C 8.742188 -21.648438 8.578125 -21.15625 8.578125 -20.5625 C 8.578125 -19.988281 8.738281 -19.503906 9.0625 -19.109375 C 9.394531 -18.710938 9.96875 -18.34375 10.78125 -18 C 11.59375 -17.65625 12.722656 -17.25 14.171875 -16.78125 C 15.890625 -16.257812 17.363281 -15.632812 18.59375 -14.90625 C 19.820312 -14.175781 20.757812 -13.257812 21.40625 -12.15625 C 22.050781 -11.050781 22.375 -9.660156 22.375 -7.984375 Z M 22.375 -7.984375 "/></g></g></g></svg>