<svg xmlns="http://www.w3.org/2000/svg" xmlns:xlink="http://www.w3.org/1999/xlink" width="500" zoomAndPan="magnify" viewBox="0 0 375 374.999991" height="500" preserveAspectRatio="xMidYMid meet" version="1.0"><defs><g/></defs><path fill="#1a1d23" d="M 317.007812 0 L 57.992188 0 C 56.089844 0 54.195312 0.09375 52.308594 0.277344 C 50.417969 0.464844 48.539062 0.742188 46.675781 1.113281 C 44.816406 1.484375 42.976562 1.945312 41.15625 2.496094 C 39.339844 3.046875 37.554688 3.6875 35.800781 4.414062 C 34.042969 5.140625 32.328125 5.953125 30.652344 6.847656 C 28.980469 7.742188 27.351562 8.71875 25.773438 9.773438 C 24.195312 10.828125 22.671875 11.957031 21.203125 13.164062 C 19.734375 14.367188 18.328125 15.640625 16.984375 16.984375 C 15.640625 18.328125 14.367188 19.734375 13.164062 21.203125 C 11.957031 22.671875 10.828125 24.195312 9.773438 25.773438 C 8.71875 27.351562 7.742188 28.980469 6.847656 30.652344 C 5.953125 32.328125 5.140625 34.042969 4.414062 35.800781 C 3.6875 37.554688 3.046875 39.339844 2.496094 41.15625 C 1.945312 42.976562 1.484375 44.816406 1.113281 46.675781 C 0.742188 48.539062 0.464844 50.417969 0.277344 52.308594 C 0.09375 54.195312 0 56.089844 0 57.992188 L 0 317.007812 C 0 318.910156 0.09375 320.804688 0.277344 322.691406 C 0.464844 324.582031 0.742188 326.460938 1.113281 328.324219 C 1.484375 330.183594 1.945312 332.023438 2.496094 333.84375 C 3.046875 335.660156 3.6875 337.445312 4.414062 339.199219 C 5.140625 340.957031 5.953125 342.671875 6.847656 344.347656 C 7.742188 346.019531 8.71875 347.648438 9.773438 349.226562 C 10.828125 350.804688 11.957031 352.328125 13.164062 353.796875 C 14.367188 355.265625 15.640625 356.671875 16.984375 358.015625 C 18.328125 359.359375 19.734375 360.632812 21.203125 361.835938 C 22.671875 363.042969 24.195312 364.171875 25.773438 365.226562 C 27.351562 366.28125 28.980469 367.257812 30.652344 368.152344 C 32.328125 369.046875 34.042969 369.859375 35.800781 370.585938 C 37.554688 371.3125 39.339844 371.953125 41.15625 372.503906 C 42.976562 373.054688 44.816406 373.515625 46.675781 373.886719 C 48.539062 374.257812 50.417969 374.535156 52.308594 374.722656 C 54.195312 374.90625 56.089844 375 57.992188 375 L 317.007812 375 C 318.910156 375 320.804688 374.90625 322.691406 374.722656 C 324.582031 374.535156 326.460938 374.257812 328.324219 373.886719 C 330.183594 373.515625 332.023438 373.054688 333.84375 372.503906 C 335.660156 371.953125 337.445312 371.3125 339.199219 370.585938 C 340.957031 369.859375 342.671875 369.046875 344.347656 368.152344 C 346.019531 367.257812 347.648438 366.28125 349.226562 365.226562 C 350.804688 364.171875 352.328125 363.042969 353.796875 361.835938 C 355.265625 360.632812 356.671875 359.359375 358.015625 358.015625 C 359.359375 356.671875 360.632812 355.265625 361.835938 353.796875 C 363.042969 352.328125 364.171875 350.804688 365.226562 349.226562 C 366.28125 347.648438 367.257812 346.019531 368.152344 344.34375 C 369.046875 342.671875 369.859375 340.957031 370.585938 339.199219 C 371.3125 337.445312 371.953125 335.660156 372.503906 333.84375 C 373.054688 332.023438 373.515625 330.183594 373.886719 328.324219 C 374.257812 326.460938 374.535156 324.582031 374.722656 322.691406 C 374.90625 320.804688 375 318.910156 375 317.007812 L 375 57.992188 C 375 56.089844 374.90625 54.195312 374.722656 52.308594 C 374.535156 50.417969 374.257812 48.539062 373.886719 46.675781 C 373.515625 44.816406 373.054688 42.976562 372.503906 41.15625 C 371.953125 39.339844 371.3125 37.554688 370.585938 35.800781 C 369.859375 34.042969 369.046875 32.328125 368.152344 30.652344 C 367.257812 28.980469 366.28125 27.351562 365.226562 25.773438 C 364.171875 24.195312 363.042969 22.671875 361.835938 21.203125 C 360.632812 19.734375 359.359375 18.328125 358.015625 16.984375 C 356.671875 15.640625 355.265625 14.367188 353.796875 13.164062 C 352.328125 11.957031 350.804688 10.828125 349.226562 9.773438 C 347.648438 8.71875 346.019531 7.742188 344.34375 6.847656 C 342.671875 5.953125 340.957031 5.140625 339.199219 4.414062 C 337.445312 3.6875 335.660156 3.046875 333.84375 2.496094 C 332.023438 1.945312 330.183594 1.484375 328.324219 1.113281 C 326.460938 0.742188 324.582031 0.464844 322.691406 0.277344 C 320.804688 0.09375 318.910156 0 317.007812 0 Z M 160.714844 120.535156 L 135.402344 120.535156 C 134.425781 120.539062 133.460938 120.640625 132.507812 120.832031 C 131.550781 121.027344 130.621094 121.308594 129.722656 121.683594 C 128.824219 122.058594 127.96875 122.519531 127.160156 123.0625 C 126.347656 123.605469 125.597656 124.21875 124.910156 124.910156 C 124.21875 125.597656 123.605469 126.347656 123.0625 127.160156 C 122.519531 127.96875 122.058594 128.824219 121.683594 129.722656 C 121.308594 130.621094 121.027344 131.550781 120.832031 132.507812 C 120.640625 133.460938 120.539062 134.425781 120.535156 135.402344 L 120.535156 162.1875 C 120.519531 164.5 120.296875 166.792969 119.871094 169.0625 C 119.445312 171.335938 118.820312 173.550781 117.996094 175.714844 C 117.171875 177.875 116.164062 179.945312 114.972656 181.925781 C 113.777344 183.90625 112.417969 185.761719 110.894531 187.5 C 112.433594 189.253906 113.804688 191.132812 115.007812 193.132812 C 116.207031 195.132812 117.21875 197.226562 118.042969 199.410156 C 118.867188 201.597656 119.488281 203.835938 119.90625 206.132812 C 120.324219 208.429688 120.535156 210.746094 120.535156 213.082031 L 120.535156 239.867188 C 120.558594 240.828125 120.671875 241.78125 120.878906 242.722656 C 121.082031 243.664062 121.378906 244.578125 121.761719 245.460938 C 122.144531 246.347656 122.605469 247.1875 123.152344 247.980469 C 123.699219 248.777344 124.316406 249.511719 125.003906 250.1875 C 125.691406 250.863281 126.4375 251.464844 127.242188 251.996094 C 128.042969 252.527344 128.894531 252.976562 129.785156 253.339844 C 130.675781 253.707031 131.59375 253.984375 132.539062 254.175781 C 133.484375 254.363281 134.4375 254.460938 135.402344 254.464844 L 160.714844 254.464844 L 160.714844 281.25 L 135.402344 281.25 C 134.039062 281.246094 132.679688 281.179688 131.320312 281.042969 C 129.964844 280.90625 128.617188 280.707031 127.28125 280.4375 C 125.945312 280.171875 124.621094 279.839844 123.316406 279.441406 C 122.015625 279.042969 120.730469 278.585938 119.472656 278.0625 C 118.214844 277.539062 116.984375 276.957031 115.78125 276.3125 C 114.578125 275.667969 113.410156 274.96875 112.277344 274.210938 C 111.144531 273.453125 110.050781 272.640625 108.996094 271.773438 C 107.941406 270.910156 106.933594 269.996094 105.96875 269.03125 C 105.003906 268.066406 104.089844 267.058594 103.226562 266.003906 C 102.359375 264.949219 101.546875 263.855469 100.789062 262.722656 C 100.03125 261.589844 99.332031 260.421875 98.6875 259.21875 C 98.042969 258.015625 97.460938 256.785156 96.9375 255.527344 C 96.414062 254.269531 95.957031 252.984375 95.558594 251.679688 C 95.160156 250.378906 94.828125 249.054688 94.5625 247.71875 C 94.292969 246.382812 94.09375 245.035156 93.957031 243.679688 C 93.820312 242.320312 93.753906 240.960938 93.75 239.597656 L 93.75 212.8125 C 93.734375 212.023438 93.640625 211.242188 93.472656 210.472656 C 93.300781 209.703125 93.058594 208.953125 92.746094 208.230469 C 92.433594 207.507812 92.050781 206.820312 91.605469 206.167969 C 91.15625 205.519531 90.652344 204.917969 90.085938 204.367188 C 89.523438 203.816406 88.910156 203.324219 88.25 202.890625 C 87.589844 202.457031 86.894531 202.09375 86.164062 201.792969 C 85.433594 201.496094 84.683594 201.273438 83.90625 201.121094 C 83.132812 200.96875 82.351562 200.894531 81.5625 200.894531 L 66.964844 200.894531 L 66.964844 174.105469 L 81.5625 174.105469 C 82.363281 174.105469 83.15625 174.027344 83.941406 173.871094 C 84.726562 173.71875 85.488281 173.484375 86.226562 173.179688 C 86.964844 172.875 87.667969 172.496094 88.332031 172.054688 C 89 171.609375 89.613281 171.101562 90.179688 170.539062 C 90.746094 169.972656 91.25 169.355469 91.695312 168.691406 C 92.140625 168.023438 92.515625 167.324219 92.824219 166.582031 C 93.128906 165.84375 93.359375 165.082031 93.515625 164.296875 C 93.671875 163.511719 93.75 162.71875 93.75 161.917969 L 93.75 135.132812 C 93.761719 133.777344 93.839844 132.421875 93.980469 131.070312 C 94.125 129.722656 94.332031 128.378906 94.605469 127.050781 C 94.878906 125.71875 95.21875 124.40625 95.621094 123.109375 C 96.023438 121.8125 96.488281 120.539062 97.015625 119.285156 C 97.542969 118.035156 98.128906 116.8125 98.773438 115.617188 C 99.421875 114.421875 100.121094 113.261719 100.882812 112.136719 C 101.640625 111.011719 102.453125 109.925781 103.320312 108.878906 C 104.183594 107.832031 105.101562 106.832031 106.0625 105.875 C 107.027344 104.917969 108.035156 104.007812 109.085938 103.148438 C 110.136719 102.292969 111.230469 101.484375 112.359375 100.734375 C 113.492188 99.980469 114.65625 99.285156 115.855469 98.648438 C 117.050781 98.007812 118.277344 97.429688 119.535156 96.914062 C 120.789062 96.394531 122.066406 95.9375 123.367188 95.542969 C 124.664062 95.148438 125.980469 94.820312 127.3125 94.554688 C 128.644531 94.289062 129.988281 94.089844 131.335938 93.953125 C 132.6875 93.820312 134.042969 93.753906 135.402344 93.75 L 160.714844 93.75 Z M 308.035156 200.894531 L 293.4375 200.894531 C 292.636719 200.894531 291.84375 200.972656 291.058594 201.128906 C 290.273438 201.28125 289.511719 201.515625 288.773438 201.820312 C 288.035156 202.125 287.332031 202.503906 286.667969 202.945312 C 286 203.390625 285.386719 203.898438 284.820312 204.460938 C 284.253906 205.027344 283.75 205.644531 283.304688 206.308594 C 282.859375 206.976562 282.484375 207.675781 282.179688 208.417969 C 281.871094 209.15625 281.640625 209.917969 281.484375 210.703125 C 281.328125 211.488281 281.25 212.28125 281.25 213.082031 L 281.25 239.867188 C 281.238281 241.222656 281.160156 242.578125 281.019531 243.929688 C 280.875 245.277344 280.667969 246.621094 280.394531 247.949219 C 280.121094 249.28125 279.78125 250.59375 279.378906 251.890625 C 278.976562 253.1875 278.511719 254.460938 277.984375 255.710938 C 277.457031 256.964844 276.871094 258.1875 276.226562 259.382812 C 275.578125 260.578125 274.878906 261.738281 274.117188 262.863281 C 273.359375 263.988281 272.546875 265.074219 271.679688 266.121094 C 270.816406 267.167969 269.898438 268.167969 268.9375 269.125 C 267.972656 270.082031 266.964844 270.992188 265.914062 271.851562 C 264.863281 272.707031 263.769531 273.515625 262.640625 274.265625 C 261.507812 275.019531 260.34375 275.714844 259.144531 276.351562 C 257.949219 276.992188 256.722656 277.570312 255.464844 278.085938 C 254.210938 278.605469 252.933594 279.0625 251.632812 279.457031 C 250.335938 279.851562 249.019531 280.179688 247.6875 280.445312 C 246.355469 280.710938 245.011719 280.910156 243.664062 281.046875 C 242.3125 281.179688 240.957031 281.246094 239.597656 281.25 L 214.285156 281.25 L 214.285156 254.464844 L 239.597656 254.464844 C 240.574219 254.460938 241.539062 254.359375 242.492188 254.167969 C 243.449219 253.972656 244.378906 253.691406 245.277344 253.316406 C 246.175781 252.941406 247.03125 252.480469 247.839844 251.9375 C 248.652344 251.394531 249.402344 250.78125 250.089844 250.089844 C 250.78125 249.402344 251.394531 248.652344 251.9375 247.839844 C 252.480469 247.03125 252.941406 246.175781 253.316406 245.277344 C 253.691406 244.378906 253.972656 243.449219 254.167969 242.492188 C 254.359375 241.539062 254.460938 240.574219 254.464844 239.597656 L 254.464844 212.8125 C 254.480469 210.5 254.703125 208.207031 255.128906 205.9375 C 255.554688 203.664062 256.179688 201.449219 257.003906 199.285156 C 257.828125 197.125 258.835938 195.054688 260.027344 193.074219 C 261.222656 191.09375 262.582031 189.238281 264.105469 187.5 C 262.566406 185.746094 261.195312 183.867188 259.992188 181.867188 C 258.792969 179.867188 257.78125 177.773438 256.957031 175.585938 C 256.132812 173.402344 255.511719 171.164062 255.09375 168.867188 C 254.675781 166.570312 254.464844 164.253906 254.464844 161.917969 L 254.464844 135.132812 C 254.441406 134.171875 254.328125 133.21875 254.121094 132.277344 C 253.917969 131.335938 253.621094 130.421875 253.238281 129.539062 C 252.855469 128.652344 252.394531 127.8125 251.847656 127.019531 C 251.300781 126.222656 250.683594 125.488281 249.996094 124.8125 C 249.308594 124.136719 248.5625 123.535156 247.757812 123.003906 C 246.957031 122.472656 246.105469 122.023438 245.214844 121.660156 C 244.324219 121.292969 243.40625 121.015625 242.460938 120.824219 C 241.515625 120.636719 240.5625 120.539062 239.597656 120.535156 L 214.285156 120.535156 L 214.285156 93.75 L 239.597656 93.75 C 240.960938 93.753906 242.320312 93.820312 243.679688 93.957031 C 245.035156 94.09375 246.382812 94.292969 247.71875 94.5625 C 249.054688 94.828125 250.378906 95.160156 251.683594 95.558594 C 252.984375 95.957031 254.269531 96.414062 255.527344 96.9375 C 256.785156 97.460938 258.015625 98.042969 259.21875 98.6875 C 260.421875 99.332031 261.589844 100.03125 262.722656 100.789062 C 263.855469 101.546875 264.949219 102.359375 266.003906 103.226562 C 267.058594 104.089844 268.066406 105.003906 269.03125 105.96875 C 269.996094 106.933594 270.910156 107.941406 271.773438 108.996094 C 272.640625 110.050781 273.453125 111.144531 274.210938 112.277344 C 274.96875 113.410156 275.667969 114.578125 276.3125 115.78125 C 276.957031 116.984375 277.539062 118.214844 278.0625 119.472656 C 278.585938 120.730469 279.042969 122.015625 279.441406 123.316406 C 279.839844 124.621094 280.171875 125.945312 280.4375 127.28125 C 280.707031 128.617188 280.90625 129.964844 281.042969 131.320312 C 281.179688 132.679688 281.246094 134.039062 281.25 135.402344 L 281.25 162.1875 C 281.265625 162.976562 281.359375 163.757812 281.527344 164.527344 C 281.699219 165.296875 281.9375 166.046875 282.253906 166.769531 C 282.566406 167.492188 282.949219 168.179688 283.394531 168.832031 C 283.84375 169.480469 284.347656 170.082031 284.914062 170.632812 C 285.476562 171.183594 286.089844 171.675781 286.75 172.109375 C 287.410156 172.542969 288.105469 172.90625 288.835938 173.207031 C 289.566406 173.503906 290.316406 173.726562 291.09375 173.878906 C 291.867188 174.03125 292.648438 174.105469 293.4375 174.105469 L 308.035156 174.105469 Z M 308.035156 200.894531 " fill-opacity="1" fill-rule="nonzero"/><g fill="#ffffff" fill-opacity="1"><g transform="translate(77.36584, 359.476618)"><g><path d="M 6.78125 -22.734375 L 6.78125 0 L 1.96875 0 L 1.96875 -22.734375 Z M 6.78125 -22.734375 "/></g></g></g><g fill="#ffffff" fill-opacity="1"><g transform="translate(91.766074, 359.476618)"><g><path d="M 17.78125 -17.046875 L 11.828125 0 L 6.5 0 L 0.53125 -17.046875 L 5.53125 -17.046875 L 9.078125 -4.859375 L 9.25 -4.859375 L 12.78125 -17.046875 Z M 17.78125 -17.046875 "/></g></g></g><g fill="#ffffff" fill-opacity="1"><g transform="translate(115.714812, 359.476618)"><g><path d="M 6.75 0.328125 C 5.125 0.328125 3.773438 -0.0976562 2.703125 -0.953125 C 1.628906 -1.804688 1.09375 -3.078125 1.09375 -4.765625 C 1.09375 -6.035156 1.390625 -7.03125 1.984375 -7.75 C 2.585938 -8.476562 3.375 -9.007812 4.34375 -9.34375 C 5.320312 -9.6875 6.375 -9.910156 7.5 -10.015625 C 8.976562 -10.160156 10.035156 -10.3125 10.671875 -10.46875 C 11.304688 -10.632812 11.625 -10.992188 11.625 -11.546875 L 11.625 -11.609375 C 11.625 -12.316406 11.398438 -12.863281 10.953125 -13.25 C 10.515625 -13.632812 9.894531 -13.828125 9.09375 -13.828125 C 8.238281 -13.828125 7.5625 -13.640625 7.0625 -13.265625 C 6.5625 -12.898438 6.226562 -12.429688 6.0625 -11.859375 L 1.6875 -12.21875 C 2.007812 -13.769531 2.816406 -15 4.109375 -15.90625 C 5.398438 -16.820312 7.066406 -17.28125 9.109375 -17.28125 C 10.378906 -17.28125 11.566406 -17.078125 12.671875 -16.671875 C 13.773438 -16.273438 14.664062 -15.648438 15.34375 -14.796875 C 16.019531 -13.953125 16.359375 -12.851562 16.359375 -11.5 L 16.359375 0 L 11.875 0 L 11.875 -2.359375 L 11.734375 -2.359375 C 11.316406 -1.566406 10.695312 -0.921875 9.875 -0.421875 C 9.050781 0.078125 8.007812 0.328125 6.75 0.328125 Z M 8.109375 -2.9375 C 9.140625 -2.9375 9.988281 -3.238281 10.65625 -3.84375 C 11.320312 -4.445312 11.65625 -5.195312 11.65625 -6.09375 L 11.65625 -7.90625 C 11.46875 -7.78125 11.179688 -7.664062 10.796875 -7.5625 C 10.410156 -7.46875 9.992188 -7.382812 9.546875 -7.3125 C 9.109375 -7.25 8.71875 -7.191406 8.375 -7.140625 C 7.539062 -7.023438 6.867188 -6.789062 6.359375 -6.4375 C 5.859375 -6.09375 5.609375 -5.585938 5.609375 -4.921875 C 5.609375 -4.265625 5.84375 -3.769531 6.3125 -3.4375 C 6.78125 -3.101562 7.378906 -2.9375 8.109375 -2.9375 Z M 8.109375 -2.9375 "/></g></g></g><g fill="#ffffff" fill-opacity="1"><g transform="translate(139.4859, 359.476618)"><g><path d="M 6.625 -9.859375 L 6.625 0 L 1.890625 0 L 1.890625 -17.046875 L 6.390625 -17.046875 L 6.390625 -14.046875 L 6.59375 -14.046875 C 6.976562 -15.035156 7.613281 -15.820312 8.5 -16.40625 C 9.382812 -16.988281 10.457031 -17.28125 11.71875 -17.28125 C 13.5 -17.28125 14.925781 -16.707031 16 -15.5625 C 17.070312 -14.414062 17.609375 -12.847656 17.609375 -10.859375 L 17.609375 0 L 12.875 0 L 12.875 -10.015625 C 12.882812 -11.054688 12.617188 -11.867188 12.078125 -12.453125 C 11.535156 -13.046875 10.789062 -13.34375 9.84375 -13.34375 C 8.894531 -13.34375 8.117188 -13.035156 7.515625 -12.421875 C 6.921875 -11.816406 6.625 -10.960938 6.625 -9.859375 Z M 6.625 -9.859375 "/></g></g></g><g fill="#ffffff" fill-opacity="1"><g transform="translate(164.556035, 359.476618)"><g><path d="M 9.59375 0.328125 C 7.863281 0.328125 6.367188 -0.0351562 5.109375 -0.765625 C 3.859375 -1.503906 2.894531 -2.535156 2.21875 -3.859375 C 1.539062 -5.179688 1.203125 -6.710938 1.203125 -8.453125 C 1.203125 -10.222656 1.539062 -11.765625 2.21875 -13.078125 C 2.894531 -14.398438 3.859375 -15.429688 5.109375 -16.171875 C 6.367188 -16.910156 7.863281 -17.28125 9.59375 -17.28125 C 11.320312 -17.28125 12.8125 -16.910156 14.0625 -16.171875 C 15.3125 -15.429688 16.273438 -14.398438 16.953125 -13.078125 C 17.640625 -11.765625 17.984375 -10.222656 17.984375 -8.453125 C 17.984375 -6.710938 17.640625 -5.179688 16.953125 -3.859375 C 16.273438 -2.535156 15.3125 -1.503906 14.0625 -0.765625 C 12.8125 -0.0351562 11.320312 0.328125 9.59375 0.328125 Z M 9.609375 -3.328125 C 10.785156 -3.328125 11.671875 -3.816406 12.265625 -4.796875 C 12.867188 -5.773438 13.171875 -7.007812 13.171875 -8.5 C 13.171875 -9.976562 12.867188 -11.207031 12.265625 -12.1875 C 11.671875 -13.175781 10.785156 -13.671875 9.609375 -13.671875 C 8.421875 -13.671875 7.519531 -13.175781 6.90625 -12.1875 C 6.300781 -11.207031 6 -9.976562 6 -8.5 C 6 -7.007812 6.300781 -5.773438 6.90625 -4.796875 C 7.519531 -3.816406 8.421875 -3.328125 9.609375 -3.328125 Z M 9.609375 -3.328125 "/></g></g></g><g fill="#ffffff" fill-opacity="1"><g transform="translate(189.370807, 359.476618)"><g><path d="M 16.078125 -12.1875 L 11.75 -11.921875 C 11.625 -12.472656 11.320312 -12.941406 10.84375 -13.328125 C 10.363281 -13.722656 9.710938 -13.921875 8.890625 -13.921875 C 8.160156 -13.921875 7.539062 -13.765625 7.03125 -13.453125 C 6.519531 -13.148438 6.269531 -12.742188 6.28125 -12.234375 C 6.269531 -11.828125 6.429688 -11.484375 6.765625 -11.203125 C 7.097656 -10.921875 7.660156 -10.695312 8.453125 -10.53125 L 11.53125 -9.90625 C 14.8125 -9.226562 16.457031 -7.6875 16.46875 -5.28125 C 16.46875 -4.164062 16.140625 -3.1875 15.484375 -2.34375 C 14.828125 -1.5 13.925781 -0.84375 12.78125 -0.375 C 11.644531 0.09375 10.34375 0.328125 8.875 0.328125 C 6.613281 0.328125 4.8125 -0.140625 3.46875 -1.078125 C 2.132812 -2.023438 1.351562 -3.3125 1.125 -4.9375 L 5.78125 -5.1875 C 5.925781 -4.488281 6.265625 -3.960938 6.796875 -3.609375 C 7.335938 -3.253906 8.03125 -3.078125 8.875 -3.078125 C 9.707031 -3.078125 10.375 -3.238281 10.875 -3.5625 C 11.382812 -3.882812 11.644531 -4.300781 11.65625 -4.8125 C 11.632812 -5.65625 10.90625 -6.21875 9.46875 -6.5 L 6.515625 -7.09375 C 3.210938 -7.75 1.570312 -9.375 1.59375 -11.96875 C 1.582031 -13.613281 2.238281 -14.910156 3.5625 -15.859375 C 4.882812 -16.804688 6.632812 -17.28125 8.8125 -17.28125 C 10.96875 -17.28125 12.664062 -16.820312 13.90625 -15.90625 C 15.144531 -15 15.867188 -13.757812 16.078125 -12.1875 Z M 16.078125 -12.1875 "/></g></g></g><g fill="#ffffff" fill-opacity="1"><g transform="translate(212.564558, 359.476618)"><g><path d="M 17.890625 6.390625 L 17.890625 -17.046875 L 13.234375 -17.046875 L 13.234375 -14.1875 L 13.015625 -14.1875 C 12.804688 -14.65625 12.503906 -15.125 12.109375 -15.59375 C 11.710938 -16.070312 11.191406 -16.472656 10.546875 -16.796875 C 9.910156 -17.117188 9.117188 -17.28125 8.171875 -17.28125 C 6.921875 -17.28125 5.769531 -16.953125 4.71875 -16.296875 C 3.675781 -15.648438 2.835938 -14.675781 2.203125 -13.375 C 1.578125 -12.082031 1.265625 -10.457031 1.265625 -8.5 C 1.265625 -6.601562 1.570312 -5 2.1875 -3.6875 C 2.800781 -2.382812 3.628906 -1.394531 4.671875 -0.71875 C 5.710938 -0.0507812 6.878906 0.28125 8.171875 0.28125 C 9.097656 0.28125 9.878906 0.128906 10.515625 -0.171875 C 11.148438 -0.484375 11.671875 -0.867188 12.078125 -1.328125 C 12.484375 -1.785156 12.796875 -2.253906 13.015625 -2.734375 L 13.15625 -2.734375 L 13.15625 6.390625 Z M 13.265625 -8.53125 C 13.265625 -7.007812 12.953125 -5.785156 12.328125 -4.859375 C 11.703125 -3.941406 10.816406 -3.484375 9.671875 -3.484375 C 8.515625 -3.484375 7.628906 -3.953125 7.015625 -4.890625 C 6.398438 -5.828125 6.09375 -7.039062 6.09375 -8.53125 C 6.09375 -10.007812 6.394531 -11.207031 7 -12.125 C 7.613281 -13.050781 8.503906 -13.515625 9.671875 -13.515625 C 10.828125 -13.515625 11.710938 -13.0625 12.328125 -12.15625 C 12.953125 -11.257812 13.265625 -10.050781 13.265625 -8.53125 Z M 13.265625 -8.53125 "/></g></g></g><g fill="#ffffff" fill-opacity="1"><g transform="translate(237.967785, 359.476618)"><g><path d="M 12.828125 -7.265625 L 12.828125 -17.046875 L 17.546875 -17.046875 L 17.546875 0 L 13.015625 0 L 13.015625 -3.09375 L 12.828125 -3.09375 C 12.441406 -2.09375 11.800781 -1.289062 10.90625 -0.6875 C 10.019531 -0.0820312 8.9375 0.21875 7.65625 0.21875 C 5.9375 0.21875 4.546875 -0.347656 3.484375 -1.484375 C 2.429688 -2.628906 1.898438 -4.203125 1.890625 -6.203125 L 1.890625 -17.046875 L 6.625 -17.046875 L 6.625 -7.046875 C 6.625 -6.035156 6.890625 -5.238281 7.421875 -4.65625 C 7.960938 -4.070312 8.679688 -3.78125 9.578125 -3.78125 C 10.421875 -3.78125 11.171875 -4.070312 11.828125 -4.65625 C 12.492188 -5.25 12.828125 -6.117188 12.828125 -7.265625 Z M 12.828125 -7.265625 "/></g></g></g><g fill="#ffffff" fill-opacity="1"><g transform="translate(263.03792, 359.476618)"><g><path d="M 1.890625 0 L 1.890625 -17.046875 L 6.625 -17.046875 L 6.625 0 Z M 4.265625 -19.25 C 3.578125 -19.25 2.976562 -19.484375 2.46875 -19.953125 C 1.96875 -20.421875 1.71875 -20.988281 1.71875 -21.65625 C 1.71875 -22.3125 1.96875 -22.867188 2.46875 -23.328125 C 2.976562 -23.796875 3.578125 -24.03125 4.265625 -24.03125 C 4.972656 -24.03125 5.578125 -23.796875 6.078125 -23.328125 C 6.578125 -22.867188 6.828125 -22.3125 6.828125 -21.65625 C 6.828125 -20.988281 6.578125 -20.421875 6.078125 -19.953125 C 5.578125 -19.484375 4.972656 -19.25 4.265625 -19.25 Z M 4.265625 -19.25 "/></g></g></g><g fill="#ffffff" fill-opacity="1"><g transform="translate(277.171681, 359.476618)"><g><path d="M 16.078125 -12.1875 L 11.75 -11.921875 C 11.625 -12.472656 11.320312 -12.941406 10.84375 -13.328125 C 10.363281 -13.722656 9.710938 -13.921875 8.890625 -13.921875 C 8.160156 -13.921875 7.539062 -13.765625 7.03125 -13.453125 C 6.519531 -13.148438 6.269531 -12.742188 6.28125 -12.234375 C 6.269531 -11.828125 6.429688 -11.484375 6.765625 -11.203125 C 7.097656 -10.921875 7.660156 -10.695312 8.453125 -10.53125 L 11.53125 -9.90625 C 14.8125 -9.226562 16.457031 -7.6875 16.46875 -5.28125 C 16.46875 -4.164062 16.140625 -3.1875 15.484375 -2.34375 C 14.828125 -1.5 13.925781 -0.84375 12.78125 -0.375 C 11.644531 0.09375 10.34375 0.328125 8.875 0.328125 C 6.613281 0.328125 4.8125 -0.140625 3.46875 -1.078125 C 2.132812 -2.023438 1.351562 -3.3125 1.125 -4.9375 L 5.78125 -5.1875 C 5.925781 -4.488281 6.265625 -3.960938 6.796875 -3.609375 C 7.335938 -3.253906 8.03125 -3.078125 8.875 -3.078125 C 9.707031 -3.078125 10.375 -3.238281 10.875 -3.5625 C 11.382812 -3.882812 11.644531 -4.300781 11.65625 -4.8125 C 11.632812 -5.65625 10.90625 -6.21875 9.46875 -6.5 L 6.515625 -7.09375 C 3.210938 -7.75 1.570312 -9.375 1.59375 -11.96875 C 1.582031 -13.613281 2.238281 -14.910156 3.5625 -15.859375 C 4.882812 -16.804688 6.632812 -17.28125 8.8125 -17.28125 C 10.96875 -17.28125 12.664062 -16.820312 13.90625 -15.90625 C 15.144531 -15 15.867188 -13.757812 16.078125 -12.1875 Z M 16.078125 -12.1875 "/></g></g></g></svg>