<svg xmlns="http://www.w3.org/2000/svg" xmlns:xlink="http://www.w3.org/1999/xlink" width="500" zoomAndPan="magnify" viewBox="0 0 375 374.999991" height="500" preserveAspectRatio="xMidYMid meet" version="1.0"><defs><g/><clipPath id="75e3054f3b"><path d="M 0 90.234375 L 375 90.234375 L 375 284.484375 L 0 284.484375 Z M 0 90.234375 " clip-rule="nonzero"/></clipPath></defs><path fill="#1a1d23" d="M 341.71875 275.136719 C 340.878906 275.136719 340.195312 275.820312 340.195312 276.65625 C 340.195312 277.496094 340.878906 278.175781 341.71875 278.175781 C 342.558594 278.175781 343.242188 277.496094 343.242188 276.65625 C 343.242188 275.820312 342.558594 275.136719 341.71875 275.136719 " fill-opacity="1" fill-rule="nonzero"/><path fill="#1a1d23" d="M 351.871094 275.136719 C 351.027344 275.136719 350.347656 275.820312 350.347656 276.65625 C 350.347656 277.496094 351.027344 278.175781 351.871094 278.175781 C 352.710938 278.175781 353.390625 277.496094 353.390625 276.65625 C 353.390625 275.820312 352.710938 275.136719 351.871094 275.136719 " fill-opacity="1" fill-rule="nonzero"/><path fill="#1a1d23" d="M 321.417969 275.136719 C 320.578125 275.136719 319.898438 275.820312 319.898438 276.65625 C 319.898438 277.496094 320.578125 278.175781 321.417969 278.175781 C 322.261719 278.175781 322.941406 277.496094 322.941406 276.65625 C 322.941406 275.820312 322.261719 275.136719 321.417969 275.136719 " fill-opacity="1" fill-rule="nonzero"/><path fill="#1a1d23" d="M 331.570312 275.136719 C 330.726562 275.136719 330.046875 275.820312 330.046875 276.65625 C 330.046875 277.496094 330.726562 278.175781 331.570312 278.175781 C 332.410156 278.175781 333.09375 277.496094 333.09375 276.65625 C 333.09375 275.820312 332.410156 275.136719 331.570312 275.136719 " fill-opacity="1" fill-rule="nonzero"/><path fill="#1a1d23" d="M 301.121094 275.136719 C 300.28125 275.136719 299.597656 275.820312 299.597656 276.65625 C 299.597656 277.496094 300.28125 278.175781 301.121094 278.175781 C 301.960938 278.175781 302.640625 277.496094 302.640625 276.65625 C 302.640625 275.820312 301.960938 275.136719 301.121094 275.136719 " fill-opacity="1" fill-rule="nonzero"/><path fill="#1a1d23" d="M 311.269531 275.136719 C 310.429688 275.136719 309.75 275.820312 309.75 276.65625 C 309.75 277.496094 310.429688 278.175781 311.269531 278.175781 C 312.109375 278.175781 312.792969 277.496094 312.792969 276.65625 C 312.792969 275.820312 312.109375 275.136719 311.269531 275.136719 " fill-opacity="1" fill-rule="nonzero"/><path fill="#1a1d23" d="M 280.824219 275.136719 C 279.980469 275.136719 279.300781 275.820312 279.300781 276.65625 C 279.300781 277.496094 279.980469 278.175781 280.824219 278.175781 C 281.664062 278.175781 282.34375 277.496094 282.34375 276.65625 C 282.34375 275.820312 281.664062 275.136719 280.824219 275.136719 " fill-opacity="1" fill-rule="nonzero"/><path fill="#1a1d23" d="M 290.972656 275.136719 C 290.132812 275.136719 289.449219 275.820312 289.449219 276.65625 C 289.449219 277.496094 290.132812 278.175781 290.972656 278.175781 C 291.8125 278.175781 292.492188 277.496094 292.492188 276.65625 C 292.492188 275.820312 291.8125 275.136719 290.972656 275.136719 " fill-opacity="1" fill-rule="nonzero"/><path fill="#1a1d23" d="M 260.523438 275.136719 C 259.679688 275.136719 259 275.820312 259 276.65625 C 259 277.496094 259.679688 278.175781 260.523438 278.175781 C 261.363281 278.175781 262.046875 277.496094 262.046875 276.65625 C 262.046875 275.820312 261.363281 275.136719 260.523438 275.136719 " fill-opacity="1" fill-rule="nonzero"/><path fill="#1a1d23" d="M 270.671875 275.136719 C 269.832031 275.136719 269.148438 275.820312 269.148438 276.65625 C 269.148438 277.496094 269.832031 278.175781 270.671875 278.175781 C 271.511719 278.175781 272.195312 277.496094 272.195312 276.65625 C 272.195312 275.820312 271.511719 275.136719 270.671875 275.136719 " fill-opacity="1" fill-rule="nonzero"/><path fill="#1a1d23" d="M 240.222656 275.136719 C 239.382812 275.136719 238.703125 275.820312 238.703125 276.65625 C 238.703125 277.496094 239.382812 278.175781 240.222656 278.175781 C 241.0625 278.175781 241.746094 277.496094 241.746094 276.65625 C 241.746094 275.820312 241.0625 275.136719 240.222656 275.136719 " fill-opacity="1" fill-rule="nonzero"/><path fill="#1a1d23" d="M 250.371094 275.136719 C 249.53125 275.136719 248.851562 275.820312 248.851562 276.65625 C 248.851562 277.496094 249.53125 278.175781 250.371094 278.175781 C 251.210938 278.175781 251.894531 277.496094 251.894531 276.65625 C 251.894531 275.820312 251.210938 275.136719 250.371094 275.136719 " fill-opacity="1" fill-rule="nonzero"/><path fill="#1a1d23" d="M 219.925781 275.136719 C 219.082031 275.136719 218.402344 275.820312 218.402344 276.65625 C 218.402344 277.496094 219.082031 278.175781 219.925781 278.175781 C 220.765625 278.175781 221.445312 277.496094 221.445312 276.65625 C 221.445312 275.820312 220.765625 275.136719 219.925781 275.136719 " fill-opacity="1" fill-rule="nonzero"/><path fill="#1a1d23" d="M 230.074219 275.136719 C 229.234375 275.136719 228.550781 275.820312 228.550781 276.65625 C 228.550781 277.496094 229.234375 278.175781 230.074219 278.175781 C 230.914062 278.175781 231.59375 277.496094 231.59375 276.65625 C 231.59375 275.820312 230.914062 275.136719 230.074219 275.136719 " fill-opacity="1" fill-rule="nonzero"/><path fill="#1a1d23" d="M 199.625 275.136719 C 198.785156 275.136719 198.101562 275.820312 198.101562 276.65625 C 198.101562 277.496094 198.785156 278.175781 199.625 278.175781 C 200.464844 278.175781 201.148438 277.496094 201.148438 276.65625 C 201.148438 275.820312 200.464844 275.136719 199.625 275.136719 " fill-opacity="1" fill-rule="nonzero"/><path fill="#1a1d23" d="M 209.777344 275.136719 C 208.933594 275.136719 208.253906 275.820312 208.253906 276.65625 C 208.253906 277.496094 208.933594 278.175781 209.777344 278.175781 C 210.617188 278.175781 211.296875 277.496094 211.296875 276.65625 C 211.296875 275.820312 210.617188 275.136719 209.777344 275.136719 " fill-opacity="1" fill-rule="nonzero"/><path fill="#1a1d23" d="M 179.324219 275.136719 C 178.484375 275.136719 177.804688 275.820312 177.804688 276.65625 C 177.804688 277.496094 178.484375 278.175781 179.324219 278.175781 C 180.164062 278.175781 180.847656 277.496094 180.847656 276.65625 C 180.847656 275.820312 180.164062 275.136719 179.324219 275.136719 " fill-opacity="1" fill-rule="nonzero"/><path fill="#1a1d23" d="M 189.476562 275.136719 C 188.632812 275.136719 187.953125 275.820312 187.953125 276.65625 C 187.953125 277.496094 188.632812 278.175781 189.476562 278.175781 C 190.316406 278.175781 191 277.496094 191 276.65625 C 191 275.820312 190.316406 275.136719 189.476562 275.136719 " fill-opacity="1" fill-rule="nonzero"/><path fill="#1a1d23" d="M 159.027344 275.136719 C 158.1875 275.136719 157.503906 275.820312 157.503906 276.65625 C 157.503906 277.496094 158.1875 278.175781 159.027344 278.175781 C 159.867188 278.175781 160.546875 277.496094 160.546875 276.65625 C 160.546875 275.820312 159.867188 275.136719 159.027344 275.136719 " fill-opacity="1" fill-rule="nonzero"/><path fill="#1a1d23" d="M 169.175781 275.136719 C 168.335938 275.136719 167.65625 275.820312 167.65625 276.65625 C 167.65625 277.496094 168.335938 278.175781 169.175781 278.175781 C 170.015625 278.175781 170.699219 277.496094 170.699219 276.65625 C 170.699219 275.820312 170.015625 275.136719 169.175781 275.136719 " fill-opacity="1" fill-rule="nonzero"/><path fill="#1a1d23" d="M 138.726562 275.136719 C 137.886719 275.136719 137.203125 275.820312 137.203125 276.65625 C 137.203125 277.496094 137.886719 278.175781 138.726562 278.175781 C 139.570312 278.175781 140.25 277.496094 140.25 276.65625 C 140.25 275.820312 139.570312 275.136719 138.726562 275.136719 " fill-opacity="1" fill-rule="nonzero"/><path fill="#1a1d23" d="M 148.878906 275.136719 C 148.035156 275.136719 147.355469 275.820312 147.355469 276.65625 C 147.355469 277.496094 148.035156 278.175781 148.878906 278.175781 C 149.71875 278.175781 150.402344 277.496094 150.402344 276.65625 C 150.402344 275.820312 149.71875 275.136719 148.878906 275.136719 " fill-opacity="1" fill-rule="nonzero"/><path fill="#1a1d23" d="M 118.429688 275.136719 C 117.585938 275.136719 116.90625 275.820312 116.90625 276.65625 C 116.90625 277.496094 117.585938 278.175781 118.429688 278.175781 C 119.269531 278.175781 119.953125 277.496094 119.953125 276.65625 C 119.953125 275.820312 119.269531 275.136719 118.429688 275.136719 " fill-opacity="1" fill-rule="nonzero"/><path fill="#1a1d23" d="M 128.578125 275.136719 C 127.738281 275.136719 127.054688 275.820312 127.054688 276.65625 C 127.054688 277.496094 127.738281 278.175781 128.578125 278.175781 C 129.417969 278.175781 130.101562 277.496094 130.101562 276.65625 C 130.101562 275.820312 129.417969 275.136719 128.578125 275.136719 " fill-opacity="1" fill-rule="nonzero"/><path fill="#1a1d23" d="M 98.128906 275.136719 C 97.289062 275.136719 96.609375 275.820312 96.609375 276.65625 C 96.609375 277.496094 97.289062 278.175781 98.128906 278.175781 C 98.96875 278.175781 99.652344 277.496094 99.652344 276.65625 C 99.652344 275.820312 98.96875 275.136719 98.128906 275.136719 " fill-opacity="1" fill-rule="nonzero"/><path fill="#1a1d23" d="M 108.277344 275.136719 C 107.4375 275.136719 106.757812 275.820312 106.757812 276.65625 C 106.757812 277.496094 107.4375 278.175781 108.277344 278.175781 C 109.117188 278.175781 109.800781 277.496094 109.800781 276.65625 C 109.800781 275.820312 109.117188 275.136719 108.277344 275.136719 " fill-opacity="1" fill-rule="nonzero"/><path fill="#1a1d23" d="M 77.832031 275.136719 C 76.988281 275.136719 76.308594 275.820312 76.308594 276.65625 C 76.308594 277.496094 76.988281 278.175781 77.832031 278.175781 C 78.671875 278.175781 79.355469 277.496094 79.355469 276.65625 C 79.355469 275.820312 78.671875 275.136719 77.832031 275.136719 " fill-opacity="1" fill-rule="nonzero"/><path fill="#1a1d23" d="M 87.980469 275.136719 C 87.140625 275.136719 86.457031 275.820312 86.457031 276.65625 C 86.457031 277.496094 87.140625 278.175781 87.980469 278.175781 C 88.820312 278.175781 89.503906 277.496094 89.503906 276.65625 C 89.503906 275.820312 88.820312 275.136719 87.980469 275.136719 " fill-opacity="1" fill-rule="nonzero"/><path fill="#1a1d23" d="M 57.53125 275.136719 C 56.6875 275.136719 56.007812 275.820312 56.007812 276.65625 C 56.007812 277.496094 56.6875 278.175781 57.53125 278.175781 C 58.371094 278.175781 59.054688 277.496094 59.054688 276.65625 C 59.054688 275.820312 58.371094 275.136719 57.53125 275.136719 " fill-opacity="1" fill-rule="nonzero"/><path fill="#1a1d23" d="M 67.679688 275.136719 C 66.839844 275.136719 66.15625 275.820312 66.15625 276.65625 C 66.15625 277.496094 66.839844 278.175781 67.679688 278.175781 C 68.519531 278.175781 69.203125 277.496094 69.203125 276.65625 C 69.203125 275.820312 68.519531 275.136719 67.679688 275.136719 " fill-opacity="1" fill-rule="nonzero"/><path fill="#1a1d23" d="M 37.230469 275.136719 C 36.390625 275.136719 35.710938 275.820312 35.710938 276.65625 C 35.710938 277.496094 36.390625 278.175781 37.230469 278.175781 C 38.070312 278.175781 38.753906 277.496094 38.753906 276.65625 C 38.753906 275.820312 38.070312 275.136719 37.230469 275.136719 " fill-opacity="1" fill-rule="nonzero"/><path fill="#1a1d23" d="M 47.382812 275.136719 C 46.539062 275.136719 45.859375 275.820312 45.859375 276.65625 C 45.859375 277.496094 46.539062 278.175781 47.382812 278.175781 C 48.222656 278.175781 48.90625 277.496094 48.90625 276.65625 C 48.90625 275.820312 48.222656 275.136719 47.382812 275.136719 " fill-opacity="1" fill-rule="nonzero"/><path fill="#1a1d23" d="M 11.859375 128.183594 C 11.019531 128.183594 10.335938 128.863281 10.335938 129.703125 C 10.335938 129.707031 10.335938 129.707031 10.335938 129.707031 C 10.335938 130.542969 11.019531 131.226562 11.859375 131.226562 C 12.699219 131.226562 13.382812 130.542969 13.382812 129.707031 C 13.382812 129.707031 13.382812 129.707031 13.382812 129.703125 C 13.382812 128.863281 12.699219 128.183594 11.859375 128.183594 " fill-opacity="1" fill-rule="nonzero"/><path fill="#1a1d23" d="M 11.859375 118.046875 C 11.019531 118.046875 10.335938 118.730469 10.335938 119.570312 C 10.335938 120.410156 11.019531 121.089844 11.859375 121.089844 C 12.699219 121.089844 13.382812 120.410156 13.382812 119.570312 C 13.382812 118.730469 12.699219 118.046875 11.859375 118.046875 " fill-opacity="1" fill-rule="nonzero"/><path fill="#1a1d23" d="M 11.859375 148.453125 C 11.019531 148.453125 10.335938 149.132812 10.335938 149.972656 C 10.335938 149.976562 10.335938 149.976562 10.335938 149.976562 C 10.335938 150.8125 11.019531 151.492188 11.859375 151.492188 C 12.699219 151.492188 13.382812 150.8125 13.382812 149.976562 C 13.382812 149.976562 13.382812 149.976562 13.382812 149.972656 C 13.382812 149.132812 12.699219 148.453125 11.859375 148.453125 " fill-opacity="1" fill-rule="nonzero"/><path fill="#1a1d23" d="M 11.859375 138.320312 C 11.019531 138.320312 10.335938 138.996094 10.335938 139.839844 C 10.335938 140.679688 11.019531 141.359375 11.859375 141.359375 C 12.699219 141.359375 13.382812 140.679688 13.382812 139.839844 C 13.382812 138.996094 12.699219 138.320312 11.859375 138.320312 " fill-opacity="1" fill-rule="nonzero"/><path fill="#1a1d23" d="M 11.859375 168.722656 C 11.019531 168.722656 10.335938 169.402344 10.335938 170.242188 C 10.335938 171.082031 11.019531 171.761719 11.859375 171.761719 C 12.699219 171.761719 13.382812 171.082031 13.382812 170.242188 C 13.382812 169.402344 12.699219 168.722656 11.859375 168.722656 " fill-opacity="1" fill-rule="nonzero"/><path fill="#1a1d23" d="M 11.859375 158.589844 C 11.019531 158.589844 10.335938 159.269531 10.335938 160.109375 C 10.335938 160.949219 11.019531 161.628906 11.859375 161.628906 C 12.699219 161.628906 13.382812 160.949219 13.382812 160.109375 C 13.382812 159.269531 12.699219 158.589844 11.859375 158.589844 " fill-opacity="1" fill-rule="nonzero"/><path fill="#1a1d23" d="M 11.859375 188.992188 C 11.019531 188.992188 10.335938 189.671875 10.335938 190.511719 C 10.335938 191.355469 11.019531 192.03125 11.859375 192.03125 C 12.699219 192.03125 13.382812 191.355469 13.382812 190.511719 C 13.382812 189.671875 12.699219 188.992188 11.859375 188.992188 " fill-opacity="1" fill-rule="nonzero"/><path fill="#1a1d23" d="M 11.859375 178.859375 C 11.019531 178.859375 10.335938 179.539062 10.335938 180.375 C 10.335938 181.21875 11.019531 181.898438 11.859375 181.898438 C 12.699219 181.898438 13.382812 181.21875 13.382812 180.375 C 13.382812 179.539062 12.699219 178.859375 11.859375 178.859375 " fill-opacity="1" fill-rule="nonzero"/><path fill="#1a1d23" d="M 11.859375 209.261719 C 11.019531 209.261719 10.335938 209.941406 10.335938 210.78125 C 10.335938 211.621094 11.019531 212.304688 11.859375 212.304688 C 12.699219 212.304688 13.382812 211.621094 13.382812 210.78125 C 13.382812 209.941406 12.699219 209.261719 11.859375 209.261719 " fill-opacity="1" fill-rule="nonzero"/><path fill="#1a1d23" d="M 11.859375 199.125 C 11.019531 199.125 10.335938 199.808594 10.335938 200.644531 C 10.335938 201.488281 11.019531 202.167969 11.859375 202.167969 C 12.699219 202.167969 13.382812 201.488281 13.382812 200.644531 C 13.382812 199.808594 12.699219 199.125 11.859375 199.125 " fill-opacity="1" fill-rule="nonzero"/><path fill="#1a1d23" d="M 11.859375 229.53125 C 11.019531 229.53125 10.335938 230.210938 10.335938 231.054688 C 10.335938 231.890625 11.019531 232.570312 11.859375 232.570312 C 12.699219 232.570312 13.382812 231.890625 13.382812 231.054688 C 13.382812 230.210938 12.699219 229.53125 11.859375 229.53125 " fill-opacity="1" fill-rule="nonzero"/><path fill="#1a1d23" d="M 11.859375 219.394531 C 11.019531 219.394531 10.335938 220.074219 10.335938 220.917969 C 10.335938 221.753906 11.019531 222.4375 11.859375 222.4375 C 12.699219 222.4375 13.382812 221.753906 13.382812 220.917969 C 13.382812 220.074219 12.699219 219.394531 11.859375 219.394531 " fill-opacity="1" fill-rule="nonzero"/><path fill="#1a1d23" d="M 11.859375 249.800781 C 11.019531 249.800781 10.335938 250.480469 10.335938 251.320312 C 10.335938 252.160156 11.019531 252.839844 11.859375 252.839844 C 12.699219 252.839844 13.382812 252.160156 13.382812 251.320312 C 13.382812 250.480469 12.699219 249.800781 11.859375 249.800781 " fill-opacity="1" fill-rule="nonzero"/><path fill="#1a1d23" d="M 11.859375 239.667969 C 11.019531 239.667969 10.335938 240.34375 10.335938 241.1875 C 10.335938 242.023438 11.019531 242.707031 11.859375 242.707031 C 12.699219 242.707031 13.382812 242.023438 13.382812 241.1875 C 13.382812 240.34375 12.699219 239.667969 11.859375 239.667969 " fill-opacity="1" fill-rule="nonzero"/><path fill="#1a1d23" d="M 11.859375 270.070312 C 11.019531 270.070312 10.335938 270.75 10.335938 271.589844 C 10.335938 272.429688 11.019531 273.109375 11.859375 273.109375 C 12.699219 273.109375 13.382812 272.429688 13.382812 271.589844 C 13.382812 270.75 12.699219 270.070312 11.859375 270.070312 " fill-opacity="1" fill-rule="nonzero"/><path fill="#1a1d23" d="M 11.859375 259.933594 C 11.019531 259.933594 10.335938 260.617188 10.335938 261.453125 C 10.335938 262.296875 11.019531 262.972656 11.859375 262.972656 C 12.699219 262.972656 13.382812 262.296875 13.382812 261.453125 C 13.382812 260.617188 12.699219 259.933594 11.859375 259.933594 " fill-opacity="1" fill-rule="nonzero"/><path fill="#1a1d23" d="M 16.933594 275.136719 C 16.09375 275.136719 15.410156 275.820312 15.410156 276.65625 C 15.410156 277.496094 16.09375 278.175781 16.933594 278.175781 C 17.773438 278.175781 18.457031 277.496094 18.457031 276.65625 C 18.457031 275.820312 17.773438 275.136719 16.933594 275.136719 " fill-opacity="1" fill-rule="nonzero"/><path fill="#1a1d23" d="M 27.082031 275.136719 C 26.242188 275.136719 25.5625 275.820312 25.5625 276.65625 C 25.5625 277.496094 26.242188 278.175781 27.082031 278.175781 C 27.921875 278.175781 28.605469 277.496094 28.605469 276.65625 C 28.605469 275.820312 27.921875 275.136719 27.082031 275.136719 " fill-opacity="1" fill-rule="nonzero"/><path fill="#1a1d23" d="M 6.785156 123.117188 C 5.941406 123.117188 5.261719 123.796875 5.261719 124.636719 C 5.261719 125.476562 5.941406 126.15625 6.785156 126.15625 C 7.625 126.15625 8.308594 125.476562 8.308594 124.636719 C 8.308594 123.796875 7.625 123.117188 6.785156 123.117188 " fill-opacity="1" fill-rule="nonzero"/><path fill="#1a1d23" d="M 6.785156 112.980469 C 5.941406 112.980469 5.261719 113.664062 5.261719 114.5 C 5.261719 115.339844 5.941406 116.023438 6.785156 116.023438 C 7.625 116.023438 8.308594 115.339844 8.308594 114.5 C 8.308594 113.664062 7.625 112.980469 6.785156 112.980469 " fill-opacity="1" fill-rule="nonzero"/><path fill="#1a1d23" d="M 6.785156 143.386719 C 5.941406 143.386719 5.261719 144.066406 5.261719 144.90625 C 5.261719 145.746094 5.941406 146.425781 6.785156 146.425781 C 7.625 146.425781 8.308594 145.746094 8.308594 144.90625 C 8.308594 144.066406 7.625 143.386719 6.785156 143.386719 " fill-opacity="1" fill-rule="nonzero"/><path fill="#1a1d23" d="M 6.785156 133.25 C 5.941406 133.25 5.261719 133.933594 5.261719 134.773438 C 5.261719 135.609375 5.941406 136.289062 6.785156 136.289062 C 7.625 136.289062 8.308594 135.609375 8.308594 134.773438 C 8.308594 133.933594 7.625 133.25 6.785156 133.25 " fill-opacity="1" fill-rule="nonzero"/><path fill="#1a1d23" d="M 6.785156 163.65625 C 5.941406 163.65625 5.261719 164.335938 5.261719 165.175781 C 5.261719 166.015625 5.941406 166.695312 6.785156 166.695312 C 7.625 166.695312 8.308594 166.015625 8.308594 165.175781 C 8.308594 164.335938 7.625 163.65625 6.785156 163.65625 " fill-opacity="1" fill-rule="nonzero"/><path fill="#1a1d23" d="M 6.785156 153.523438 C 5.941406 153.523438 5.261719 154.199219 5.261719 155.042969 C 5.261719 155.878906 5.941406 156.558594 6.785156 156.558594 C 7.625 156.558594 8.308594 155.878906 8.308594 155.042969 C 8.308594 154.199219 7.625 153.523438 6.785156 153.523438 " fill-opacity="1" fill-rule="nonzero"/><path fill="#1a1d23" d="M 6.785156 183.925781 C 5.941406 183.925781 5.261719 184.605469 5.261719 185.441406 C 5.261719 186.285156 5.941406 186.964844 6.785156 186.964844 C 7.625 186.964844 8.308594 186.285156 8.308594 185.441406 C 8.308594 184.605469 7.625 183.925781 6.785156 183.925781 " fill-opacity="1" fill-rule="nonzero"/><path fill="#1a1d23" d="M 6.785156 173.792969 C 5.941406 173.792969 5.261719 174.472656 5.261719 175.3125 C 5.261719 176.148438 5.941406 176.828125 6.785156 176.828125 C 7.625 176.828125 8.308594 176.148438 8.308594 175.3125 C 8.308594 174.472656 7.625 173.792969 6.785156 173.792969 " fill-opacity="1" fill-rule="nonzero"/><path fill="#1a1d23" d="M 6.785156 204.195312 C 5.941406 204.195312 5.261719 204.875 5.261719 205.714844 C 5.261719 206.554688 5.941406 207.234375 6.785156 207.234375 C 7.625 207.234375 8.308594 206.554688 8.308594 205.714844 C 8.308594 204.875 7.625 204.195312 6.785156 204.195312 " fill-opacity="1" fill-rule="nonzero"/><path fill="#1a1d23" d="M 6.785156 194.058594 C 5.941406 194.058594 5.261719 194.742188 5.261719 195.578125 C 5.261719 196.417969 5.941406 197.101562 6.785156 197.101562 C 7.625 197.101562 8.308594 196.417969 8.308594 195.578125 C 8.308594 194.742188 7.625 194.058594 6.785156 194.058594 " fill-opacity="1" fill-rule="nonzero"/><path fill="#1a1d23" d="M 6.785156 224.464844 C 5.941406 224.464844 5.261719 225.144531 5.261719 225.984375 C 5.261719 226.820312 5.941406 227.503906 6.785156 227.503906 C 7.625 227.503906 8.308594 226.820312 8.308594 225.984375 C 8.308594 225.144531 7.625 224.464844 6.785156 224.464844 " fill-opacity="1" fill-rule="nonzero"/><path fill="#1a1d23" d="M 6.785156 214.328125 C 5.941406 214.328125 5.261719 215.007812 5.261719 215.851562 C 5.261719 216.6875 5.941406 217.371094 6.785156 217.371094 C 7.625 217.371094 8.308594 216.6875 8.308594 215.851562 C 8.308594 215.007812 7.625 214.328125 6.785156 214.328125 " fill-opacity="1" fill-rule="nonzero"/><path fill="#1a1d23" d="M 6.785156 244.734375 C 5.941406 244.734375 5.261719 245.414062 5.261719 246.253906 C 5.261719 247.09375 5.941406 247.773438 6.785156 247.773438 C 7.625 247.773438 8.308594 247.09375 8.308594 246.253906 C 8.308594 245.414062 7.625 244.734375 6.785156 244.734375 " fill-opacity="1" fill-rule="nonzero"/><path fill="#1a1d23" d="M 6.785156 234.597656 C 5.941406 234.597656 5.261719 235.277344 5.261719 236.121094 C 5.261719 236.957031 5.941406 237.636719 6.785156 237.636719 C 7.625 237.636719 8.308594 236.957031 8.308594 236.121094 C 8.308594 235.277344 7.625 234.597656 6.785156 234.597656 " fill-opacity="1" fill-rule="nonzero"/><path fill="#1a1d23" d="M 6.785156 265.003906 C 5.941406 265.003906 5.261719 265.683594 5.261719 266.523438 C 5.261719 267.363281 5.941406 268.042969 6.785156 268.042969 C 7.625 268.042969 8.308594 267.363281 8.308594 266.523438 C 8.308594 265.683594 7.625 265.003906 6.785156 265.003906 " fill-opacity="1" fill-rule="nonzero"/><path fill="#1a1d23" d="M 6.785156 254.867188 C 5.941406 254.867188 5.261719 255.546875 5.261719 256.390625 C 5.261719 257.226562 5.941406 257.90625 6.785156 257.90625 C 7.625 257.90625 8.308594 257.226562 8.308594 256.390625 C 8.308594 255.546875 7.625 254.867188 6.785156 254.867188 " fill-opacity="1" fill-rule="nonzero"/><path fill="#1a1d23" d="M 6.785156 275.136719 C 5.941406 275.136719 5.261719 275.820312 5.261719 276.65625 C 5.261719 277.496094 5.941406 278.175781 6.785156 278.175781 C 7.625 278.175781 8.308594 277.496094 8.308594 276.65625 C 8.308594 275.820312 7.625 275.136719 6.785156 275.136719 " fill-opacity="1" fill-rule="nonzero"/><path fill="#1a1d23" d="M 335.007812 108.757812 L 356.855469 108.757812 L 356.855469 130.578125 L 335.007812 130.578125 Z M 332.1875 133.390625 L 359.675781 133.390625 L 359.675781 105.945312 L 332.1875 105.945312 L 332.1875 133.390625 " fill-opacity="1" fill-rule="nonzero"/><path fill="#1a1d23" d="M 350.144531 115.457031 L 349.398438 114.714844 L 345.929688 118.175781 L 342.460938 114.714844 L 340.96875 116.207031 L 344.433594 119.667969 L 340.96875 123.132812 L 342.460938 124.625 L 345.929688 121.160156 L 349.398438 124.625 L 350.890625 123.132812 L 347.421875 119.667969 L 350.890625 116.207031 L 350.144531 115.457031 " fill-opacity="1" fill-rule="nonzero"/><path fill="#1a1d23" d="M 298.136719 108.757812 L 319.988281 108.757812 L 319.988281 130.578125 L 298.136719 130.578125 Z M 295.320312 133.390625 L 322.808594 133.390625 L 322.808594 105.945312 L 295.320312 105.945312 L 295.320312 133.390625 " fill-opacity="1" fill-rule="nonzero"/><path fill="#1a1d23" d="M 313.351562 123.335938 L 304.777344 123.335938 L 304.777344 116.617188 L 313.351562 116.617188 Z M 302.660156 125.445312 L 315.464844 125.445312 L 315.464844 112.660156 L 302.660156 112.660156 L 302.660156 125.445312 " fill-opacity="1" fill-rule="nonzero"/><path fill="#1a1d23" d="M 261.273438 108.757812 L 283.121094 108.757812 L 283.121094 130.578125 L 261.273438 130.578125 Z M 258.453125 133.390625 L 285.941406 133.390625 L 285.941406 105.945312 L 258.453125 105.945312 L 258.453125 133.390625 " fill-opacity="1" fill-rule="nonzero"/><path fill="#1a1d23" d="M 266.851562 124.390625 L 266.851562 125.445312 L 277.542969 125.445312 L 277.542969 123.335938 L 266.851562 123.335938 L 266.851562 124.390625 " fill-opacity="1" fill-rule="nonzero"/><g clip-path="url(#75e3054f3b)"><path fill="#1a1d23" d="M 370.753906 266.183594 L 18.34375 266.183594 L 18.34375 150.761719 L 370.753906 150.761719 Z M 356.65625 280.234375 C 356.621094 280.238281 356.589844 280.25 356.554688 280.261719 L 347.1875 280.261719 C 347.058594 280.230469 346.929688 280.203125 346.796875 280.203125 C 346.65625 280.203125 346.527344 280.230469 346.402344 280.261719 L 337.035156 280.261719 C 336.910156 280.230469 336.78125 280.203125 336.644531 280.203125 C 336.507812 280.203125 336.378906 280.230469 336.253906 280.261719 L 326.886719 280.261719 C 326.761719 280.230469 326.632812 280.203125 326.496094 280.203125 C 326.359375 280.203125 326.230469 280.230469 326.101562 280.261719 L 316.734375 280.261719 C 316.613281 280.230469 316.484375 280.203125 316.34375 280.203125 C 316.210938 280.203125 316.082031 280.230469 315.953125 280.261719 L 306.585938 280.261719 C 306.460938 280.230469 306.332031 280.203125 306.195312 280.203125 C 306.058594 280.203125 305.929688 280.230469 305.804688 280.261719 L 296.4375 280.261719 C 296.3125 280.230469 296.183594 280.203125 296.046875 280.203125 C 295.910156 280.203125 295.78125 280.230469 295.65625 280.261719 L 286.289062 280.261719 C 286.160156 280.230469 286.03125 280.203125 285.898438 280.203125 C 285.757812 280.203125 285.628906 280.230469 285.507812 280.261719 L 276.136719 280.261719 C 276.011719 280.230469 275.882812 280.203125 275.746094 280.203125 C 275.609375 280.203125 275.480469 280.230469 275.355469 280.261719 L 265.988281 280.261719 C 265.863281 280.230469 265.734375 280.203125 265.597656 280.203125 C 265.460938 280.203125 265.332031 280.230469 265.207031 280.261719 L 255.839844 280.261719 C 255.714844 280.230469 255.585938 280.203125 255.449219 280.203125 C 255.3125 280.203125 255.183594 280.230469 255.054688 280.261719 L 245.6875 280.261719 C 245.566406 280.230469 245.4375 280.203125 245.296875 280.203125 C 245.164062 280.203125 245.035156 280.230469 244.90625 280.261719 L 235.539062 280.261719 C 235.414062 280.230469 235.285156 280.203125 235.148438 280.203125 C 235.011719 280.203125 234.882812 280.230469 234.757812 280.261719 L 225.390625 280.261719 C 225.265625 280.230469 225.136719 280.203125 225 280.203125 C 224.863281 280.203125 224.734375 280.230469 224.609375 280.261719 L 215.242188 280.261719 C 215.113281 280.230469 214.984375 280.203125 214.851562 280.203125 C 214.710938 280.203125 214.582031 280.230469 214.460938 280.261719 L 205.089844 280.261719 C 204.964844 280.230469 204.835938 280.203125 204.699219 280.203125 C 204.5625 280.203125 204.433594 280.230469 204.308594 280.261719 L 194.941406 280.261719 C 194.816406 280.230469 194.6875 280.203125 194.550781 280.203125 C 194.414062 280.203125 194.285156 280.230469 194.160156 280.261719 L 184.789062 280.261719 C 184.667969 280.230469 184.539062 280.203125 184.402344 280.203125 C 184.265625 280.203125 184.136719 280.230469 184.007812 280.261719 L 174.640625 280.261719 C 174.515625 280.230469 174.386719 280.203125 174.25 280.203125 C 174.117188 280.203125 173.988281 280.230469 173.859375 280.261719 L 164.492188 280.261719 C 164.367188 280.230469 164.238281 280.203125 164.101562 280.203125 C 163.964844 280.203125 163.835938 280.230469 163.710938 280.261719 L 154.34375 280.261719 C 154.21875 280.230469 154.089844 280.203125 153.953125 280.203125 C 153.816406 280.203125 153.6875 280.230469 153.5625 280.261719 L 144.195312 280.261719 C 144.066406 280.230469 143.9375 280.203125 143.804688 280.203125 C 143.667969 280.203125 143.535156 280.230469 143.414062 280.261719 L 134.042969 280.261719 C 133.917969 280.230469 133.789062 280.203125 133.652344 280.203125 C 133.519531 280.203125 133.386719 280.230469 133.261719 280.261719 L 123.894531 280.261719 C 123.769531 280.230469 123.640625 280.203125 123.503906 280.203125 C 123.367188 280.203125 123.238281 280.230469 123.113281 280.261719 L 113.742188 280.261719 C 113.621094 280.230469 113.492188 280.203125 113.351562 280.203125 C 113.21875 280.203125 113.089844 280.230469 112.960938 280.261719 L 103.597656 280.261719 C 103.46875 280.230469 103.339844 280.203125 103.203125 280.203125 C 103.070312 280.203125 102.9375 280.230469 102.8125 280.261719 L 93.449219 280.261719 C 93.320312 280.230469 93.191406 280.203125 93.054688 280.203125 C 92.917969 280.203125 92.789062 280.230469 92.664062 280.261719 L 83.296875 280.261719 C 83.171875 280.230469 83.042969 280.203125 82.90625 280.203125 C 82.769531 280.203125 82.640625 280.230469 82.515625 280.261719 L 73.148438 280.261719 C 73.019531 280.230469 72.890625 280.203125 72.757812 280.203125 C 72.621094 280.203125 72.488281 280.230469 72.367188 280.261719 L 62.996094 280.261719 C 62.871094 280.230469 62.742188 280.203125 62.605469 280.203125 C 62.472656 280.203125 62.339844 280.230469 62.214844 280.261719 L 52.847656 280.261719 C 52.722656 280.230469 52.59375 280.203125 52.457031 280.203125 C 52.320312 280.203125 52.191406 280.230469 52.066406 280.261719 L 42.699219 280.261719 C 42.574219 280.230469 42.445312 280.203125 42.304688 280.203125 C 42.171875 280.203125 42.042969 280.230469 41.914062 280.261719 L 32.550781 280.261719 C 32.421875 280.230469 32.292969 280.203125 32.15625 280.203125 C 32.019531 280.203125 31.890625 280.230469 31.765625 280.261719 L 22.402344 280.261719 C 22.273438 280.230469 22.144531 280.203125 22.007812 280.203125 C 21.871094 280.203125 21.742188 280.230469 21.617188 280.261719 L 12.25 280.261719 C 12.121094 280.230469 11.992188 280.203125 11.859375 280.203125 C 11.722656 280.203125 11.59375 280.230469 11.46875 280.261719 L 4.246094 280.261719 L 4.246094 108.535156 L 10.640625 108.535156 C 10.453125 108.785156 10.335938 109.097656 10.335938 109.433594 C 10.335938 110.277344 11.019531 110.957031 11.859375 110.957031 C 12.699219 110.957031 13.382812 110.277344 13.382812 109.433594 C 13.382812 109.097656 13.265625 108.785156 13.078125 108.535156 L 14.113281 108.535156 L 14.113281 270.410156 L 21.0625 270.410156 C 20.714844 270.6875 20.484375 271.109375 20.484375 271.589844 C 20.484375 272.429688 21.167969 273.109375 22.007812 273.109375 C 22.847656 273.109375 23.53125 272.429688 23.53125 271.589844 C 23.53125 271.109375 23.304688 270.6875 22.953125 270.410156 L 31.210938 270.410156 C 30.863281 270.6875 30.636719 271.109375 30.636719 271.589844 C 30.636719 272.429688 31.316406 273.109375 32.15625 273.109375 C 32.996094 273.109375 33.679688 272.429688 33.679688 271.589844 C 33.679688 271.109375 33.453125 270.6875 33.105469 270.410156 L 41.359375 270.410156 C 41.011719 270.6875 40.785156 271.109375 40.785156 271.589844 C 40.785156 272.429688 41.464844 273.109375 42.304688 273.109375 C 43.148438 273.109375 43.828125 272.429688 43.828125 271.589844 C 43.828125 271.109375 43.601562 270.6875 43.253906 270.410156 L 51.511719 270.410156 C 51.164062 270.6875 50.933594 271.109375 50.933594 271.589844 C 50.933594 272.429688 51.613281 273.109375 52.457031 273.109375 C 53.296875 273.109375 53.980469 272.429688 53.980469 271.589844 C 53.976562 271.109375 53.75 270.6875 53.402344 270.410156 L 61.660156 270.410156 C 61.3125 270.6875 61.082031 271.109375 61.082031 271.589844 C 61.082031 272.429688 61.765625 273.109375 62.605469 273.109375 C 63.445312 273.109375 64.128906 272.429688 64.128906 271.589844 C 64.128906 271.109375 63.902344 270.6875 63.554688 270.410156 L 71.808594 270.410156 C 71.460938 270.6875 71.234375 271.109375 71.234375 271.589844 C 71.234375 272.429688 71.914062 273.109375 72.757812 273.109375 C 73.597656 273.109375 74.277344 272.429688 74.277344 271.589844 C 74.277344 271.109375 74.050781 270.6875 73.703125 270.410156 L 81.957031 270.410156 C 81.609375 270.6875 81.382812 271.109375 81.382812 271.589844 C 81.382812 272.429688 82.066406 273.109375 82.90625 273.109375 C 83.746094 273.109375 84.429688 272.429688 84.429688 271.589844 C 84.429688 271.109375 84.199219 270.6875 83.851562 270.410156 L 92.109375 270.410156 C 91.757812 270.6875 91.535156 271.109375 91.535156 271.589844 C 91.535156 272.429688 92.214844 273.109375 93.054688 273.109375 C 93.894531 273.109375 94.578125 272.429688 94.578125 271.589844 C 94.578125 271.109375 94.351562 270.6875 94 270.410156 L 102.257812 270.410156 C 101.910156 270.6875 101.683594 271.109375 101.683594 271.589844 C 101.683594 272.429688 102.363281 273.109375 103.203125 273.109375 C 104.042969 273.109375 104.726562 272.429688 104.726562 271.589844 C 104.726562 271.109375 104.5 270.6875 104.152344 270.410156 L 112.410156 270.410156 C 112.058594 270.6875 111.832031 271.109375 111.832031 271.589844 C 111.832031 272.429688 112.511719 273.109375 113.351562 273.109375 C 114.191406 273.109375 114.875 272.429688 114.875 271.589844 C 114.875 271.109375 114.648438 270.6875 114.300781 270.410156 L 122.558594 270.410156 C 122.207031 270.6875 121.980469 271.109375 121.980469 271.589844 C 121.980469 272.429688 122.660156 273.109375 123.503906 273.109375 C 124.34375 273.109375 125.027344 272.429688 125.027344 271.589844 C 125.027344 271.109375 124.796875 270.6875 124.453125 270.410156 L 132.707031 270.410156 C 132.359375 270.6875 132.128906 271.109375 132.128906 271.589844 C 132.128906 272.429688 132.8125 273.109375 133.652344 273.109375 C 134.492188 273.109375 135.175781 272.429688 135.175781 271.589844 C 135.175781 271.109375 134.945312 270.6875 134.601562 270.410156 L 142.855469 270.410156 C 142.507812 270.6875 142.28125 271.109375 142.28125 271.589844 C 142.28125 272.429688 142.960938 273.109375 143.804688 273.109375 C 144.644531 273.109375 145.328125 272.429688 145.328125 271.589844 C 145.328125 271.109375 145.097656 270.6875 144.75 270.410156 L 153.003906 270.410156 C 152.65625 270.6875 152.429688 271.109375 152.429688 271.589844 C 152.429688 272.429688 153.113281 273.109375 153.953125 273.109375 C 154.792969 273.109375 155.472656 272.429688 155.472656 271.589844 C 155.472656 271.109375 155.246094 270.6875 154.898438 270.410156 L 163.15625 270.410156 C 162.804688 270.6875 162.582031 271.109375 162.582031 271.589844 C 162.582031 272.429688 163.261719 273.109375 164.101562 273.109375 C 164.941406 273.109375 165.625 272.429688 165.625 271.589844 C 165.625 271.109375 165.398438 270.6875 165.046875 270.410156 L 173.304688 270.410156 C 172.957031 270.6875 172.730469 271.109375 172.730469 271.589844 C 172.730469 272.429688 173.410156 273.109375 174.25 273.109375 C 175.089844 273.109375 175.773438 272.429688 175.773438 271.589844 C 175.773438 271.109375 175.546875 270.6875 175.199219 270.410156 L 183.457031 270.410156 C 183.105469 270.6875 182.878906 271.109375 182.878906 271.589844 C 182.878906 272.429688 183.558594 273.109375 184.402344 273.109375 C 185.242188 273.109375 185.921875 272.429688 185.921875 271.589844 C 185.921875 271.109375 185.695312 270.6875 185.347656 270.410156 L 193.605469 270.410156 C 193.257812 270.6875 193.027344 271.109375 193.027344 271.589844 C 193.027344 272.429688 193.707031 273.109375 194.550781 273.109375 C 195.390625 273.109375 196.074219 272.429688 196.074219 271.589844 C 196.074219 271.109375 195.84375 270.6875 195.5 270.410156 L 203.753906 270.410156 C 203.40625 270.6875 203.175781 271.109375 203.175781 271.589844 C 203.175781 272.429688 203.859375 273.109375 204.699219 273.109375 C 205.542969 273.109375 206.222656 272.429688 206.222656 271.589844 C 206.222656 271.109375 205.996094 270.6875 205.644531 270.410156 L 213.902344 270.410156 C 213.554688 270.6875 213.328125 271.109375 213.328125 271.589844 C 213.328125 272.429688 214.007812 273.109375 214.851562 273.109375 C 215.691406 273.109375 216.371094 272.429688 216.371094 271.589844 C 216.371094 271.109375 216.144531 270.6875 215.792969 270.410156 L 224.050781 270.410156 C 223.703125 270.6875 223.476562 271.109375 223.476562 271.589844 C 223.476562 272.429688 224.160156 273.109375 225 273.109375 C 225.839844 273.109375 226.519531 272.429688 226.519531 271.589844 C 226.519531 271.109375 226.296875 270.6875 225.945312 270.410156 L 234.203125 270.410156 C 233.851562 270.6875 233.628906 271.109375 233.628906 271.589844 C 233.628906 272.429688 234.308594 273.109375 235.148438 273.109375 C 235.988281 273.109375 236.667969 272.429688 236.667969 271.589844 C 236.667969 271.109375 236.445312 270.6875 236.09375 270.410156 L 244.351562 270.410156 C 244.003906 270.6875 243.777344 271.109375 243.777344 271.589844 C 243.777344 272.429688 244.457031 273.109375 245.296875 273.109375 C 246.136719 273.109375 246.820312 272.429688 246.820312 271.589844 C 246.820312 271.109375 246.59375 270.6875 246.246094 270.410156 L 254.503906 270.410156 C 254.152344 270.6875 253.925781 271.109375 253.925781 271.589844 C 253.925781 272.429688 254.605469 273.109375 255.449219 273.109375 C 256.289062 273.109375 256.96875 272.429688 256.96875 271.589844 C 256.96875 271.109375 256.742188 270.6875 256.394531 270.410156 L 264.652344 270.410156 C 264.304688 270.6875 264.074219 271.109375 264.074219 271.589844 C 264.074219 272.429688 264.753906 273.109375 265.597656 273.109375 C 266.4375 273.109375 267.121094 272.429688 267.121094 271.589844 C 267.121094 271.109375 266.890625 270.6875 266.542969 270.410156 L 274.800781 270.410156 C 274.453125 270.6875 274.226562 271.109375 274.226562 271.589844 L 274.222656 271.589844 C 274.222656 272.429688 274.90625 273.109375 275.746094 273.109375 C 276.589844 273.109375 277.269531 272.429688 277.269531 271.589844 C 277.269531 271.109375 277.042969 270.6875 276.691406 270.410156 L 284.949219 270.410156 C 284.601562 270.6875 284.375 271.109375 284.375 271.589844 C 284.375 272.429688 285.054688 273.109375 285.898438 273.109375 C 286.738281 273.109375 287.417969 272.429688 287.417969 271.589844 C 287.417969 271.109375 287.191406 270.6875 286.84375 270.410156 L 295.097656 270.410156 C 294.75 270.6875 294.523438 271.109375 294.523438 271.589844 C 294.523438 272.429688 295.207031 273.109375 296.046875 273.109375 C 296.886719 273.109375 297.566406 272.429688 297.566406 271.589844 C 297.566406 271.109375 297.339844 270.6875 296.992188 270.410156 L 305.25 270.410156 C 304.898438 270.6875 304.675781 271.109375 304.675781 271.589844 C 304.675781 272.429688 305.355469 273.109375 306.195312 273.109375 C 307.035156 273.109375 307.71875 272.429688 307.71875 271.589844 C 307.71875 271.109375 307.492188 270.6875 307.144531 270.410156 L 315.398438 270.410156 C 315.050781 270.6875 314.824219 271.109375 314.824219 271.589844 C 314.824219 272.429688 315.503906 273.109375 316.34375 273.109375 C 317.183594 273.109375 317.867188 272.429688 317.867188 271.589844 C 317.867188 271.109375 317.640625 270.6875 317.292969 270.410156 L 325.550781 270.410156 C 325.199219 270.6875 324.972656 271.109375 324.972656 271.589844 C 324.972656 272.429688 325.652344 273.109375 326.496094 273.109375 C 327.335938 273.109375 328.019531 272.429688 328.019531 271.589844 C 328.019531 271.109375 327.789062 270.6875 327.441406 270.410156 L 335.699219 270.410156 C 335.351562 270.6875 335.121094 271.109375 335.121094 271.589844 C 335.121094 272.429688 335.804688 273.109375 336.644531 273.109375 C 337.484375 273.109375 338.167969 272.429688 338.167969 271.589844 C 338.167969 271.109375 337.9375 270.6875 337.589844 270.410156 L 345.847656 270.410156 C 345.5 270.6875 345.273438 271.109375 345.273438 271.589844 L 345.269531 271.589844 C 345.269531 272.429688 345.953125 273.109375 346.796875 273.109375 C 347.636719 273.109375 348.316406 272.429688 348.316406 271.589844 C 348.316406 271.109375 348.089844 270.6875 347.738281 270.410156 L 355.996094 270.410156 C 355.648438 270.6875 355.421875 271.109375 355.421875 271.589844 C 355.421875 272.332031 355.953125 272.949219 356.65625 273.082031 Z M 18.34375 94.457031 L 370.753906 94.457031 L 370.753906 146.539062 L 18.34375 146.539062 Z M 14.113281 90.234375 L 14.113281 104.308594 L 0.015625 104.308594 L 0.015625 284.484375 L 360.886719 284.484375 L 360.886719 270.410156 L 374.984375 270.410156 L 374.984375 90.234375 L 14.113281 90.234375 " fill-opacity="1" fill-rule="nonzero"/></g><path fill="#ffffff" d="M 18.34375 150.761719 L 18.34375 266.183594 L 370.753906 266.183594 L 370.753906 150.761719 L 18.34375 150.761719 " fill-opacity="1" fill-rule="nonzero"/><path fill="#ffffff" d="M 350.890625 123.132812 L 349.398438 124.625 L 345.929688 121.160156 L 342.460938 124.625 L 340.96875 123.132812 L 344.433594 119.667969 L 340.96875 116.207031 L 342.460938 114.714844 L 345.929688 118.175781 L 349.398438 114.714844 L 350.144531 115.457031 L 350.890625 116.207031 L 347.421875 119.667969 Z M 356.855469 108.757812 L 335.007812 108.757812 L 335.007812 130.578125 L 356.855469 130.578125 L 356.855469 108.757812 " fill-opacity="1" fill-rule="nonzero"/><path fill="#ffffff" d="M 315.464844 125.445312 L 302.660156 125.445312 L 302.660156 112.660156 L 315.464844 112.660156 Z M 319.988281 108.757812 L 298.136719 108.757812 L 298.136719 130.578125 L 319.988281 130.578125 L 319.988281 108.757812 " fill-opacity="1" fill-rule="nonzero"/><path fill="#ffffff" d="M 313.351562 116.617188 L 304.777344 116.617188 L 304.777344 123.335938 L 313.351562 123.335938 L 313.351562 116.617188 " fill-opacity="1" fill-rule="nonzero"/><path fill="#ffffff" d="M 277.542969 125.445312 L 266.851562 125.445312 L 266.851562 123.335938 L 277.542969 123.335938 Z M 283.121094 108.757812 L 261.273438 108.757812 L 261.273438 130.578125 L 283.121094 130.578125 L 283.121094 108.757812 " fill-opacity="1" fill-rule="nonzero"/><path fill="#1a1d23" d="M 332.1875 133.390625 L 332.1875 105.945312 L 359.675781 105.945312 L 359.675781 133.390625 Z M 258.453125 105.945312 L 285.941406 105.945312 L 285.941406 133.390625 L 258.453125 133.390625 Z M 322.808594 133.390625 L 295.320312 133.390625 L 295.320312 105.945312 L 322.808594 105.945312 Z M 370.753906 94.457031 L 18.34375 94.457031 L 18.34375 146.539062 L 370.753906 146.539062 L 370.753906 94.457031 " fill-opacity="1" fill-rule="nonzero"/><g fill="#1a1d23" fill-opacity="1"><g transform="translate(41.231592, 217.313307)"><g><path d="M 8.484375 -28.453125 L 8.484375 0 L 2.46875 0 L 2.46875 -28.453125 Z M 8.484375 -28.453125 "/></g></g></g><g fill="#1a1d23" fill-opacity="1"><g transform="translate(63.12227, 217.313307)"><g><path d="M 22.265625 -21.34375 L 14.796875 0 L 8.125 0 L 0.671875 -21.34375 L 6.921875 -21.34375 L 11.34375 -6.078125 L 11.578125 -6.078125 L 15.984375 -21.34375 Z M 22.265625 -21.34375 "/></g></g></g><g fill="#1a1d23" fill-opacity="1"><g transform="translate(96.959194, 217.313307)"><g><path d="M 8.453125 0.40625 C 6.410156 0.40625 4.71875 -0.125 3.375 -1.1875 C 2.03125 -2.257812 1.359375 -3.847656 1.359375 -5.953125 C 1.359375 -7.546875 1.734375 -8.796875 2.484375 -9.703125 C 3.234375 -10.617188 4.21875 -11.285156 5.4375 -11.703125 C 6.65625 -12.128906 7.96875 -12.40625 9.375 -12.53125 C 11.226562 -12.71875 12.550781 -12.910156 13.34375 -13.109375 C 14.144531 -13.316406 14.546875 -13.765625 14.546875 -14.453125 L 14.546875 -14.53125 C 14.546875 -15.414062 14.269531 -16.097656 13.71875 -16.578125 C 13.164062 -17.054688 12.382812 -17.296875 11.375 -17.296875 C 10.3125 -17.296875 9.460938 -17.0625 8.828125 -16.59375 C 8.203125 -16.132812 7.789062 -15.550781 7.59375 -14.84375 L 2.109375 -15.28125 C 2.515625 -17.226562 3.523438 -18.769531 5.140625 -19.90625 C 6.765625 -21.050781 8.851562 -21.625 11.40625 -21.625 C 12.988281 -21.625 14.46875 -21.375 15.84375 -20.875 C 17.226562 -20.375 18.34375 -19.59375 19.1875 -18.53125 C 20.039062 -17.46875 20.46875 -16.085938 20.46875 -14.390625 L 20.46875 0 L 14.859375 0 L 14.859375 -2.953125 L 14.6875 -2.953125 C 14.164062 -1.960938 13.390625 -1.15625 12.359375 -0.53125 C 11.328125 0.09375 10.023438 0.40625 8.453125 0.40625 Z M 10.140625 -3.6875 C 11.441406 -3.6875 12.507812 -4.0625 13.34375 -4.8125 C 14.175781 -5.570312 14.59375 -6.507812 14.59375 -7.625 L 14.59375 -9.890625 C 14.351562 -9.734375 13.988281 -9.59375 13.5 -9.46875 C 13.019531 -9.351562 12.503906 -9.25 11.953125 -9.15625 C 11.398438 -9.070312 10.90625 -9 10.46875 -8.9375 C 9.4375 -8.789062 8.601562 -8.5 7.96875 -8.0625 C 7.332031 -7.625 7.015625 -6.988281 7.015625 -6.15625 C 7.015625 -5.34375 7.304688 -4.726562 7.890625 -4.3125 C 8.484375 -3.894531 9.234375 -3.6875 10.140625 -3.6875 Z M 10.140625 -3.6875 "/></g></g></g><g fill="#1a1d23" fill-opacity="1"><g transform="translate(130.57386, 217.313307)"><g><path d="M 8.28125 -12.34375 L 8.28125 0 L 2.359375 0 L 2.359375 -21.34375 L 8 -21.34375 L 8 -17.578125 L 8.25 -17.578125 C 8.726562 -18.816406 9.519531 -19.800781 10.625 -20.53125 C 11.738281 -21.257812 13.085938 -21.625 14.671875 -21.625 C 16.890625 -21.625 18.671875 -20.90625 20.015625 -19.46875 C 21.359375 -18.039062 22.03125 -16.082031 22.03125 -13.59375 L 22.03125 0 L 16.109375 0 L 16.109375 -12.53125 C 16.117188 -13.832031 15.785156 -14.851562 15.109375 -15.59375 C 14.441406 -16.332031 13.515625 -16.703125 12.328125 -16.703125 C 11.128906 -16.703125 10.15625 -16.316406 9.40625 -15.546875 C 8.664062 -14.785156 8.289062 -13.71875 8.28125 -12.34375 Z M 8.28125 -12.34375 "/></g></g></g><g fill="#1a1d23" fill-opacity="1"><g transform="translate(165.813775, 217.313307)"><g><path d="M 12 0.421875 C 9.84375 0.421875 7.976562 -0.0351562 6.40625 -0.953125 C 4.84375 -1.878906 3.632812 -3.171875 2.78125 -4.828125 C 1.925781 -6.484375 1.5 -8.40625 1.5 -10.59375 C 1.5 -12.789062 1.925781 -14.71875 2.78125 -16.375 C 3.632812 -18.03125 4.84375 -19.316406 6.40625 -20.234375 C 7.976562 -21.160156 9.84375 -21.625 12 -21.625 C 14.15625 -21.625 16.019531 -21.160156 17.59375 -20.234375 C 19.164062 -19.316406 20.378906 -18.03125 21.234375 -16.375 C 22.085938 -14.71875 22.515625 -12.789062 22.515625 -10.59375 C 22.515625 -8.40625 22.085938 -6.484375 21.234375 -4.828125 C 20.378906 -3.171875 19.164062 -1.878906 17.59375 -0.953125 C 16.019531 -0.0351562 14.15625 0.421875 12 0.421875 Z M 12.03125 -4.171875 C 13.5 -4.171875 14.609375 -4.78125 15.359375 -6 C 16.109375 -7.226562 16.484375 -8.769531 16.484375 -10.625 C 16.484375 -12.488281 16.109375 -14.035156 15.359375 -15.265625 C 14.609375 -16.492188 13.5 -17.109375 12.03125 -17.109375 C 10.539062 -17.109375 9.414062 -16.492188 8.65625 -15.265625 C 7.894531 -14.035156 7.515625 -12.488281 7.515625 -10.625 C 7.515625 -8.769531 7.894531 -7.226562 8.65625 -6 C 9.414062 -4.78125 10.539062 -4.171875 12.03125 -4.171875 Z M 12.03125 -4.171875 "/></g></g></g><g fill="#1a1d23" fill-opacity="1"><g transform="translate(200.734194, 217.313307)"><g><path d="M 20.125 -15.25 L 14.703125 -14.921875 C 14.554688 -15.609375 14.179688 -16.195312 13.578125 -16.6875 C 12.972656 -17.175781 12.15625 -17.421875 11.125 -17.421875 C 10.207031 -17.421875 9.429688 -17.226562 8.796875 -16.84375 C 8.160156 -16.457031 7.847656 -15.945312 7.859375 -15.3125 C 7.847656 -14.800781 8.050781 -14.367188 8.46875 -14.015625 C 8.882812 -13.660156 9.585938 -13.378906 10.578125 -13.171875 L 14.4375 -12.390625 C 18.539062 -11.546875 20.597656 -9.617188 20.609375 -6.609375 C 20.609375 -5.210938 20.195312 -3.984375 19.375 -2.921875 C 18.550781 -1.867188 17.425781 -1.046875 16 -0.453125 C 14.570312 0.128906 12.9375 0.421875 11.09375 0.421875 C 8.269531 0.421875 6.019531 -0.164062 4.34375 -1.34375 C 2.664062 -2.53125 1.691406 -4.144531 1.421875 -6.1875 L 7.234375 -6.484375 C 7.421875 -5.617188 7.847656 -4.960938 8.515625 -4.515625 C 9.191406 -4.066406 10.054688 -3.84375 11.109375 -3.84375 C 12.148438 -3.84375 12.988281 -4.046875 13.625 -4.453125 C 14.257812 -4.867188 14.582031 -5.390625 14.59375 -6.015625 C 14.5625 -7.066406 13.644531 -7.773438 11.84375 -8.140625 L 8.15625 -8.875 C 4.019531 -9.695312 1.960938 -11.734375 1.984375 -14.984375 C 1.972656 -17.035156 2.796875 -18.65625 4.453125 -19.84375 C 6.109375 -21.03125 8.300781 -21.625 11.03125 -21.625 C 13.726562 -21.625 15.851562 -21.050781 17.40625 -19.90625 C 18.957031 -18.769531 19.863281 -17.21875 20.125 -15.25 Z M 20.125 -15.25 "/></g></g></g><g fill="#1a1d23" fill-opacity="1"><g transform="translate(233.626515, 217.313307)"><g><path d="M 22.390625 8 L 22.390625 -21.34375 L 16.546875 -21.34375 L 16.546875 -17.75 L 16.28125 -17.75 C 16.019531 -18.332031 15.640625 -18.921875 15.140625 -19.515625 C 14.648438 -20.109375 14.003906 -20.609375 13.203125 -21.015625 C 12.398438 -21.421875 11.40625 -21.625 10.21875 -21.625 C 8.65625 -21.625 7.21875 -21.21875 5.90625 -20.40625 C 4.601562 -19.59375 3.554688 -18.375 2.765625 -16.75 C 1.972656 -15.125 1.578125 -13.085938 1.578125 -10.640625 C 1.578125 -8.265625 1.957031 -6.257812 2.71875 -4.625 C 3.488281 -2.988281 4.523438 -1.75 5.828125 -0.90625 C 7.140625 -0.0703125 8.609375 0.34375 10.234375 0.34375 C 11.378906 0.34375 12.351562 0.15625 13.15625 -0.21875 C 13.957031 -0.601562 14.609375 -1.082031 15.109375 -1.65625 C 15.617188 -2.238281 16.007812 -2.828125 16.28125 -3.421875 L 16.46875 -3.421875 L 16.46875 8 Z M 16.59375 -10.671875 C 16.59375 -8.773438 16.203125 -7.25 15.421875 -6.09375 C 14.640625 -4.9375 13.535156 -4.359375 12.109375 -4.359375 C 10.648438 -4.359375 9.535156 -4.941406 8.765625 -6.109375 C 8.003906 -7.285156 7.625 -8.804688 7.625 -10.671875 C 7.625 -12.523438 8.003906 -14.023438 8.765625 -15.171875 C 9.523438 -16.328125 10.640625 -16.90625 12.109375 -16.90625 C 13.546875 -16.90625 14.648438 -16.34375 15.421875 -15.21875 C 16.203125 -14.09375 16.59375 -12.578125 16.59375 -10.671875 Z M 16.59375 -10.671875 "/></g></g></g><g fill="#1a1d23" fill-opacity="1"><g transform="translate(269.283144, 217.313307)"><g><path d="M 16.046875 -9.09375 L 16.046875 -21.34375 L 21.96875 -21.34375 L 21.96875 0 L 16.28125 0 L 16.28125 -3.875 L 16.0625 -3.875 C 15.582031 -2.625 14.78125 -1.617188 13.65625 -0.859375 C 12.539062 -0.0976562 11.1875 0.28125 9.59375 0.28125 C 7.4375 0.28125 5.691406 -0.429688 4.359375 -1.859375 C 3.035156 -3.296875 2.367188 -5.257812 2.359375 -7.75 L 2.359375 -21.34375 L 8.28125 -21.34375 L 8.28125 -8.8125 C 8.289062 -7.550781 8.628906 -6.550781 9.296875 -5.8125 C 9.960938 -5.082031 10.851562 -4.71875 11.96875 -4.71875 C 13.039062 -4.71875 13.988281 -5.085938 14.8125 -5.828125 C 15.644531 -6.578125 16.054688 -7.664062 16.046875 -9.09375 Z M 16.046875 -9.09375 "/></g></g></g><g fill="#1a1d23" fill-opacity="1"><g transform="translate(304.523048, 217.313307)"><g><path d="M 2.359375 0 L 2.359375 -21.34375 L 8.28125 -21.34375 L 8.28125 0 Z M 5.34375 -24.09375 C 4.46875 -24.09375 3.710938 -24.382812 3.078125 -24.96875 C 2.453125 -25.5625 2.140625 -26.269531 2.140625 -27.09375 C 2.140625 -27.914062 2.453125 -28.617188 3.078125 -29.203125 C 3.710938 -29.785156 4.46875 -30.078125 5.34375 -30.078125 C 6.21875 -30.078125 6.96875 -29.785156 7.59375 -29.203125 C 8.226562 -28.617188 8.546875 -27.914062 8.546875 -27.09375 C 8.546875 -26.269531 8.226562 -25.5625 7.59375 -24.96875 C 6.96875 -24.382812 6.21875 -24.09375 5.34375 -24.09375 Z M 5.34375 -24.09375 "/></g></g></g><g fill="#1a1d23" fill-opacity="1"><g transform="translate(326.080328, 217.313307)"><g><path d="M 20.125 -15.25 L 14.703125 -14.921875 C 14.554688 -15.609375 14.179688 -16.195312 13.578125 -16.6875 C 12.972656 -17.175781 12.15625 -17.421875 11.125 -17.421875 C 10.207031 -17.421875 9.429688 -17.226562 8.796875 -16.84375 C 8.160156 -16.457031 7.847656 -15.945312 7.859375 -15.3125 C 7.847656 -14.800781 8.050781 -14.367188 8.46875 -14.015625 C 8.882812 -13.660156 9.585938 -13.378906 10.578125 -13.171875 L 14.4375 -12.390625 C 18.539062 -11.546875 20.597656 -9.617188 20.609375 -6.609375 C 20.609375 -5.210938 20.195312 -3.984375 19.375 -2.921875 C 18.550781 -1.867188 17.425781 -1.046875 16 -0.453125 C 14.570312 0.128906 12.9375 0.421875 11.09375 0.421875 C 8.269531 0.421875 6.019531 -0.164062 4.34375 -1.34375 C 2.664062 -2.53125 1.691406 -4.144531 1.421875 -6.1875 L 7.234375 -6.484375 C 7.421875 -5.617188 7.847656 -4.960938 8.515625 -4.515625 C 9.191406 -4.066406 10.054688 -3.84375 11.109375 -3.84375 C 12.148438 -3.84375 12.988281 -4.046875 13.625 -4.453125 C 14.257812 -4.867188 14.582031 -5.390625 14.59375 -6.015625 C 14.5625 -7.066406 13.644531 -7.773438 11.84375 -8.140625 L 8.15625 -8.875 C 4.019531 -9.695312 1.960938 -11.734375 1.984375 -14.984375 C 1.972656 -17.035156 2.796875 -18.65625 4.453125 -19.84375 C 6.109375 -21.03125 8.300781 -21.625 11.03125 -21.625 C 13.726562 -21.625 15.851562 -21.050781 17.40625 -19.90625 C 18.957031 -18.769531 19.863281 -17.21875 20.125 -15.25 Z M 20.125 -15.25 "/></g></g></g></svg>