<svg xmlns="http://www.w3.org/2000/svg" xmlns:xlink="http://www.w3.org/1999/xlink" width="500" zoomAndPan="magnify" viewBox="0 0 375 374.999991" height="500" preserveAspectRatio="xMidYMid meet" version="1.0"><defs><g/><clipPath id="1e2a3cf790"><path d="M 55.953125 163.390625 L 324 163.390625 L 324 208 L 55.953125 208 Z M 55.953125 163.390625 " clip-rule="nonzero"/></clipPath><clipPath id="9a42643a4e"><path d="M 57.453125 163.390625 L 322.425781 163.390625 C 323.253906 163.390625 323.925781 164.0625 323.925781 164.890625 L 323.925781 206.582031 C 323.925781 207.410156 323.253906 208.082031 322.425781 208.082031 L 57.453125 208.082031 C 56.625 208.082031 55.953125 207.410156 55.953125 206.582031 L 55.953125 164.890625 C 55.953125 164.0625 56.625 163.390625 57.453125 163.390625 " clip-rule="nonzero"/></clipPath><clipPath id="b015f53326"><path d="M 50 46 L 326 46 L 326 169.6875 L 50 169.6875 Z M 50 46 " clip-rule="nonzero"/></clipPath><clipPath id="617b031e73"><path d="M 72 69 L 302 69 L 302 169.6875 L 72 169.6875 Z M 72 69 " clip-rule="nonzero"/></clipPath><clipPath id="b3d44db5d6"><path d="M 52 205.628906 L 326 205.628906 L 326 324 L 52 324 Z M 52 205.628906 " clip-rule="nonzero"/></clipPath><clipPath id="f8241aaa43"><path d="M 73 205.628906 L 302 205.628906 L 302 301 L 73 301 Z M 73 205.628906 " clip-rule="nonzero"/></clipPath></defs><g clip-path="url(#1e2a3cf790)"><g clip-path="url(#9a42643a4e)"><path fill="#1a1d23" d="M 55.953125 163.390625 L 324.8125 163.390625 L 324.8125 207.226562 L 55.953125 207.226562 Z M 55.953125 163.390625 " fill-opacity="1" fill-rule="nonzero"/></g></g><g clip-path="url(#b015f53326)"><path fill="#1a1d23" d="M 324.34375 141.550781 C 323.007812 135.320312 318.660156 130.164062 312.742188 127.796875 C 307.054688 125.589844 300.667969 126.113281 295.414062 129.214844 C 292.8125 130.476562 289.683594 129.757812 287.890625 127.488281 C 281.277344 119.277344 272.003906 113.628906 261.671875 111.511719 C 256.773438 96.335938 246.183594 83.644531 232.128906 76.109375 C 224.554688 72.09375 216.015625 70.257812 207.460938 70.804688 C 195.84375 55.648438 177.824219 46.777344 158.730469 46.8125 C 146.769531 46.789062 135.0625 50.289062 125.070312 56.867188 C 115.082031 63.449219 107.246094 72.820312 102.539062 83.820312 C 96.488281 84.878906 90.585938 86.660156 84.964844 89.121094 C 68.082031 97.390625 55.894531 112.90625 51.855469 131.261719 C 47.816406 149.621094 52.367188 168.8125 64.21875 183.402344 C 76.066406 197.992188 93.921875 206.382812 112.71875 206.191406 C 123.804688 221.480469 141.28125 230.839844 160.148438 231.605469 L 162.0625 231.605469 C 169.246094 231.589844 176.324219 229.882812 182.722656 226.605469 C 195.210938 235.277344 210.699219 238.445312 225.585938 235.382812 C 240.472656 232.316406 253.449219 223.28125 261.488281 210.386719 C 273.414062 210.210938 285.074219 206.847656 295.257812 200.640625 C 305.441406 194.4375 313.78125 185.621094 319.410156 175.105469 C 324.964844 164.851562 326.714844 152.964844 324.34375 141.550781 Z M 311.144531 170.910156 C 306.144531 180.285156 298.628906 188.082031 289.445312 193.421875 C 280.261719 198.761719 269.765625 201.433594 259.144531 201.136719 L 256.183594 201.136719 L 254.582031 203.230469 C 250.324219 211.054688 243.898438 217.480469 236.078125 221.738281 C 228.183594 225.714844 219.328125 227.394531 210.527344 226.578125 C 201.722656 225.757812 193.324219 222.476562 186.304688 217.113281 L 183.652344 215.078125 L 180.816406 216.800781 L 180.8125 216.800781 C 175.242188 220.210938 168.839844 222.019531 162.308594 222.042969 L 160.703125 222.042969 C 143.925781 221.402344 128.5 212.664062 119.320312 198.605469 L 117.714844 196.140625 L 109.574219 196.140625 L 109.574219 196.136719 C 99.5 196.171875 89.636719 193.273438 81.183594 187.796875 C 72.726562 182.316406 66.046875 174.503906 61.953125 165.296875 C 59.070312 158.792969 57.582031 151.753906 57.574219 144.636719 C 57.5625 134.566406 60.464844 124.707031 65.9375 116.257812 C 71.414062 107.808594 79.21875 101.121094 88.414062 97.015625 C 94.21875 94.605469 100.316406 92.988281 106.550781 92.207031 L 109.382812 91.835938 L 110.371094 89.1875 L 110.375 89.1875 C 116.949219 72.328125 131.757812 60.0625 149.539062 56.742188 C 152.554688 56.230469 155.609375 55.960938 158.667969 55.941406 C 175.640625 55.90625 191.550781 64.207031 201.230469 78.144531 L 202.894531 80.550781 L 205.792969 80.121094 L 205.792969 80.117188 C 213.371094 79.148438 221.0625 80.550781 227.816406 84.125 C 240.46875 91.035156 249.675781 102.90625 253.222656 116.878906 L 254.089844 120.027344 L 257.292969 120.457031 C 266.464844 121.640625 274.804688 126.351562 280.550781 133.597656 C 282.929688 136.417969 286.210938 138.335938 289.84375 139.027344 C 293.46875 139.710938 297.226562 139.121094 300.472656 137.355469 C 303.058594 135.796875 306.214844 135.507812 309.042969 136.554688 C 312.140625 137.660156 314.464844 140.265625 315.214844 143.460938 C 317.125 152.707031 315.679688 162.328125 311.144531 170.601562 Z M 311.144531 170.910156 " fill-opacity="1" fill-rule="nonzero"/></g><g clip-path="url(#617b031e73)"><path fill="#1a1d23" d="M 269.449219 142.71875 C 266.894531 139.253906 263.316406 136.679688 259.21875 135.363281 C 255.125 134.046875 250.71875 134.050781 246.621094 135.378906 C 245.15625 135.839844 243.554688 135.558594 242.328125 134.628906 C 241.101562 133.699219 240.40625 132.230469 240.457031 130.695312 C 240.636719 123.804688 238.890625 117.003906 235.414062 111.054688 C 231.9375 105.101562 226.871094 100.242188 220.777344 97.015625 C 215.550781 94.21875 209.40625 93.65625 203.757812 95.472656 C 203.757812 96.152344 204.1875 96.707031 204.3125 97.324219 C 206.472656 105.820312 205.007812 114.832031 200.273438 122.210938 C 195.539062 129.589844 187.953125 134.667969 179.332031 136.242188 C 177.433594 136.558594 175.515625 136.726562 173.59375 136.738281 C 167.261719 136.683594 161.097656 134.730469 155.890625 131.125 C 150.570312 127.449219 146.515625 122.214844 144.296875 116.140625 C 143.863281 114.828125 144.023438 113.390625 144.738281 112.207031 C 145.445312 111.019531 146.636719 110.207031 147.996094 109.96875 C 150.296875 109.582031 152.542969 110.878906 153.363281 113.054688 C 154.902344 117.085938 157.609375 120.5625 161.136719 123.042969 C 166.175781 126.636719 172.5 127.9375 178.546875 126.621094 C 184.59375 125.308594 189.808594 121.5 192.902344 116.140625 C 195.703125 110 196.207031 103.058594 194.316406 96.585938 L 193.578125 94.550781 C 189.882812 83.957031 181.582031 75.609375 171.007812 71.859375 C 160.433594 68.105469 148.730469 69.355469 139.183594 75.253906 C 129.640625 81.152344 123.285156 91.058594 121.90625 102.199219 C 121.484375 104.554688 119.433594 106.273438 117.03125 106.269531 C 109.195312 106.050781 101.402344 107.566406 94.210938 110.710938 C 82.496094 116.042969 74.351562 127.027344 72.652344 139.789062 C 70.953125 152.546875 75.933594 165.28125 85.84375 173.5 C 95.753906 181.710938 109.1875 184.253906 121.414062 180.222656 L 122.402344 180.222656 C 126.800781 178.613281 130.597656 175.691406 133.277344 171.851562 C 135.960938 168.011719 137.398438 163.4375 137.386719 158.757812 C 137.367188 151.65625 133.894531 145.003906 128.074219 140.933594 C 126.039062 139.59375 125.324219 136.945312 126.40625 134.761719 C 127.242188 133.058594 128.957031 131.964844 130.851562 131.925781 C 131.777344 131.921875 132.679688 132.203125 133.441406 132.726562 C 141.578125 138.378906 146.617188 147.5 147.074219 157.398438 C 147.25 163.523438 145.679688 169.574219 142.546875 174.839844 C 139.410156 180.101562 134.839844 184.363281 129.371094 187.125 C 132.378906 193.042969 136.910156 198.046875 142.492188 201.636719 C 148.070312 205.222656 154.507812 207.261719 161.136719 207.546875 C 168.84375 207.933594 176.199219 204.289062 180.5625 197.921875 C 181.484375 196.574219 183.007812 195.765625 184.636719 195.761719 C 186.265625 195.765625 187.777344 196.605469 188.644531 197.980469 C 193.035156 204.917969 199.976562 209.847656 207.976562 211.699219 C 215.96875 213.550781 224.371094 212.179688 231.367188 207.882812 C 238.359375 203.582031 243.375 196.703125 245.328125 188.730469 C 246.808594 182.578125 246.351562 176.117188 244.035156 170.226562 C 242.613281 165.894531 239.640625 162.242188 235.691406 159.964844 C 231.742188 157.6875 227.089844 156.949219 222.632812 157.890625 C 218.058594 158.859375 214.039062 161.558594 211.40625 165.417969 C 210.160156 167.375 207.734375 168.210938 205.542969 167.453125 C 203.625 166.753906 202.34375 164.929688 202.339844 162.886719 C 202.355469 162.058594 202.589844 161.25 203.019531 160.542969 C 205.625 156.453125 209.234375 153.101562 213.503906 150.796875 C 219.984375 147.367188 227.558594 146.644531 234.578125 148.78125 C 241.589844 150.921875 247.476562 155.75 250.945312 162.210938 C 254.792969 169.492188 256.34375 177.773438 255.382812 185.957031 C 263.984375 187.085938 272.726562 185.570312 280.441406 181.601562 C 288.15625 177.636719 294.480469 171.40625 298.558594 163.75 C 300.421875 160.273438 301.4375 156.40625 301.519531 152.460938 C 295.804688 154.105469 289.734375 154.058594 284.042969 152.328125 C 278.355469 150.597656 273.28125 147.265625 269.449219 142.714844 Z M 269.449219 142.71875 " fill-opacity="1" fill-rule="nonzero"/></g><g fill="#ffffff" fill-opacity="1"><g transform="translate(65.457592, 198.486433)"><g><path d="M 20.609375 -27.59375 L 20.609375 -23.4375 L 14.765625 -23.4375 L 14.765625 -4.171875 L 20.609375 -4.171875 L 20.609375 0 L 3.328125 0 L 3.328125 -4.171875 L 9.171875 -4.171875 L 9.171875 -23.4375 L 3.328125 -23.4375 L 3.328125 -27.59375 Z M 20.609375 -27.59375 "/></g></g></g><g fill="#ffffff" fill-opacity="1"><g transform="translate(93.820862, 198.486433)"><g><path d="M 22.390625 -21.125 L 15.140625 0 L 8.8125 0 L 1.5625 -21.125 L 7.34375 -21.125 L 12.078125 -4.265625 L 16.921875 -21.125 Z M 22.390625 -21.125 "/></g></g></g><g fill="#ffffff" fill-opacity="1"><g transform="translate(122.184132, 198.486433)"><g><path d="M 20.15625 -5.625 C 20.15625 -4.8125 20.269531 -4.222656 20.5 -3.859375 C 20.726562 -3.492188 21.101562 -3.21875 21.625 -3.03125 L 20.484375 0.5625 C 19.347656 0.4375 18.375 0.15625 17.5625 -0.28125 C 16.757812 -0.71875 16.144531 -1.390625 15.71875 -2.296875 C 14.925781 -1.328125 13.914062 -0.597656 12.6875 -0.109375 C 11.46875 0.378906 10.191406 0.625 8.859375 0.625 C 6.703125 0.625 4.988281 0.0078125 3.71875 -1.21875 C 2.445312 -2.457031 1.8125 -4.050781 1.8125 -6 C 1.8125 -8.257812 2.695312 -10 4.46875 -11.21875 C 6.238281 -12.4375 8.742188 -13.046875 11.984375 -13.046875 L 14.90625 -13.046875 L 14.90625 -14.140625 C 14.90625 -15.378906 14.519531 -16.273438 13.75 -16.828125 C 12.988281 -17.390625 11.894531 -17.671875 10.46875 -17.671875 C 9.78125 -17.671875 8.925781 -17.578125 7.90625 -17.390625 C 6.894531 -17.210938 5.847656 -16.941406 4.765625 -16.578125 L 3.484375 -20.25 C 4.828125 -20.757812 6.1875 -21.132812 7.5625 -21.375 C 8.945312 -21.625 10.195312 -21.75 11.3125 -21.75 C 14.300781 -21.75 16.519531 -21.113281 17.96875 -19.84375 C 19.425781 -18.582031 20.15625 -16.796875 20.15625 -14.484375 Z M 10.609375 -3.296875 C 11.410156 -3.296875 12.210938 -3.515625 13.015625 -3.953125 C 13.816406 -4.390625 14.445312 -5.015625 14.90625 -5.828125 L 14.90625 -9.875 L 12.890625 -9.875 C 10.960938 -9.875 9.566406 -9.5625 8.703125 -8.9375 C 7.847656 -8.320312 7.421875 -7.445312 7.421875 -6.3125 C 7.421875 -5.351562 7.691406 -4.609375 8.234375 -4.078125 C 8.785156 -3.554688 9.578125 -3.296875 10.609375 -3.296875 Z M 10.609375 -3.296875 "/></g></g></g><g fill="#ffffff" fill-opacity="1"><g transform="translate(150.547402, 198.486433)"><g><path d="M 3.171875 0 L 3.171875 -21.125 L 7.859375 -21.125 L 8.234375 -18.53125 C 9.160156 -19.59375 10.179688 -20.394531 11.296875 -20.9375 C 12.410156 -21.476562 13.617188 -21.75 14.921875 -21.75 C 16.816406 -21.75 18.269531 -21.195312 19.28125 -20.09375 C 20.289062 -19 20.796875 -17.457031 20.796875 -15.46875 L 20.796875 0 L 15.40625 0 L 15.40625 -13.453125 C 15.40625 -14.484375 15.335938 -15.316406 15.203125 -15.953125 C 15.066406 -16.585938 14.816406 -17.039062 14.453125 -17.3125 C 14.085938 -17.582031 13.5625 -17.71875 12.875 -17.71875 C 12.3125 -17.71875 11.773438 -17.597656 11.265625 -17.359375 C 10.753906 -17.117188 10.269531 -16.789062 9.8125 -16.375 C 9.363281 -15.957031 8.945312 -15.488281 8.5625 -14.96875 L 8.5625 0 Z M 3.171875 0 "/></g></g></g><g fill="#ffffff" fill-opacity="1"><g transform="translate(178.910672, 198.486433)"><g><path d="M 11.984375 -21.75 C 14.109375 -21.75 15.90625 -21.289062 17.375 -20.375 C 18.84375 -19.457031 19.957031 -18.160156 20.71875 -16.484375 C 21.488281 -14.816406 21.875 -12.859375 21.875 -10.609375 C 21.875 -8.328125 21.484375 -6.34375 20.703125 -4.65625 C 19.921875 -2.976562 18.796875 -1.675781 17.328125 -0.75 C 15.859375 0.164062 14.070312 0.625 11.96875 0.625 C 9.863281 0.625 8.070312 0.175781 6.59375 -0.71875 C 5.125 -1.625 4.003906 -2.914062 3.234375 -4.59375 C 2.460938 -6.269531 2.078125 -8.265625 2.078125 -10.578125 C 2.078125 -12.796875 2.460938 -14.742188 3.234375 -16.421875 C 4.015625 -18.097656 5.144531 -19.40625 6.625 -20.34375 C 8.101562 -21.28125 9.890625 -21.75 11.984375 -21.75 Z M 11.984375 -17.703125 C 10.535156 -17.703125 9.453125 -17.128906 8.734375 -15.984375 C 8.015625 -14.835938 7.65625 -13.035156 7.65625 -10.578125 C 7.65625 -8.097656 8.007812 -6.285156 8.71875 -5.140625 C 9.4375 -4.003906 10.519531 -3.4375 11.96875 -3.4375 C 13.414062 -3.4375 14.492188 -4.003906 15.203125 -5.140625 C 15.921875 -6.285156 16.28125 -8.109375 16.28125 -10.609375 C 16.28125 -13.054688 15.921875 -14.847656 15.203125 -15.984375 C 14.492188 -17.128906 13.421875 -17.703125 11.984375 -17.703125 Z M 11.984375 -17.703125 "/></g></g></g><g fill="#ffffff" fill-opacity="1"><g transform="translate(207.273936, 198.486433)"><g><path d="M 11.25 -3.359375 C 12.476562 -3.359375 13.457031 -3.566406 14.1875 -3.984375 C 14.914062 -4.398438 15.28125 -4.992188 15.28125 -5.765625 C 15.28125 -6.273438 15.160156 -6.707031 14.921875 -7.0625 C 14.679688 -7.425781 14.195312 -7.757812 13.46875 -8.0625 C 12.75 -8.363281 11.675781 -8.707031 10.25 -9.09375 C 8.90625 -9.445312 7.722656 -9.878906 6.703125 -10.390625 C 5.691406 -10.910156 4.898438 -11.578125 4.328125 -12.390625 C 3.765625 -13.203125 3.484375 -14.226562 3.484375 -15.46875 C 3.484375 -16.695312 3.832031 -17.785156 4.53125 -18.734375 C 5.238281 -19.679688 6.25 -20.421875 7.5625 -20.953125 C 8.875 -21.484375 10.457031 -21.75 12.3125 -21.75 C 14.144531 -21.75 15.738281 -21.507812 17.09375 -21.03125 C 18.457031 -20.5625 19.625 -19.96875 20.59375 -19.25 L 18.421875 -16 C 17.566406 -16.550781 16.640625 -16.988281 15.640625 -17.3125 C 14.640625 -17.644531 13.578125 -17.8125 12.453125 -17.8125 C 11.222656 -17.8125 10.332031 -17.640625 9.78125 -17.296875 C 9.226562 -16.953125 8.953125 -16.460938 8.953125 -15.828125 C 8.953125 -15.390625 9.09375 -15.019531 9.375 -14.71875 C 9.65625 -14.414062 10.171875 -14.117188 10.921875 -13.828125 C 11.671875 -13.535156 12.738281 -13.195312 14.125 -12.8125 C 15.5 -12.425781 16.695312 -11.976562 17.71875 -11.46875 C 18.738281 -10.96875 19.53125 -10.296875 20.09375 -9.453125 C 20.65625 -8.617188 20.9375 -7.523438 20.9375 -6.171875 C 20.9375 -4.640625 20.484375 -3.367188 19.578125 -2.359375 C 18.679688 -1.359375 17.5 -0.609375 16.03125 -0.109375 C 14.570312 0.378906 12.988281 0.625 11.28125 0.625 C 9.28125 0.625 7.523438 0.332031 6.015625 -0.25 C 4.515625 -0.832031 3.25 -1.570312 2.21875 -2.46875 L 5.015625 -5.609375 C 5.835938 -4.953125 6.769531 -4.410156 7.8125 -3.984375 C 8.863281 -3.566406 10.007812 -3.359375 11.25 -3.359375 Z M 11.25 -3.359375 "/></g></g></g><g fill="#ffffff" fill-opacity="1"><g transform="translate(235.6372, 198.486433)"><g><path d="M 10.390625 -21.75 C 11.515625 -21.75 12.535156 -21.535156 13.453125 -21.109375 C 14.367188 -20.679688 15.148438 -20.0625 15.796875 -19.25 L 16.078125 -21.125 L 20.765625 -21.125 L 20.765625 8.71875 L 15.390625 8.140625 L 15.390625 -2.0625 C 14.722656 -1.21875 13.925781 -0.554688 13 -0.078125 C 12.082031 0.390625 11.019531 0.625 9.8125 0.625 C 7.976562 0.625 6.488281 0.160156 5.34375 -0.765625 C 4.195312 -1.703125 3.363281 -3.007812 2.84375 -4.6875 C 2.332031 -6.363281 2.078125 -8.332031 2.078125 -10.59375 C 2.078125 -12.75 2.394531 -14.664062 3.03125 -16.34375 C 3.664062 -18.03125 4.601562 -19.351562 5.84375 -20.3125 C 7.09375 -21.269531 8.609375 -21.75 10.390625 -21.75 Z M 11.796875 -17.734375 C 10.460938 -17.734375 9.4375 -17.164062 8.71875 -16.03125 C 8.007812 -14.894531 7.65625 -13.078125 7.65625 -10.578125 C 7.65625 -8.804688 7.800781 -7.398438 8.09375 -6.359375 C 8.394531 -5.328125 8.820312 -4.585938 9.375 -4.140625 C 9.9375 -3.691406 10.609375 -3.46875 11.390625 -3.46875 C 12.265625 -3.46875 13.03125 -3.71875 13.6875 -4.21875 C 14.34375 -4.71875 14.910156 -5.359375 15.390625 -6.140625 L 15.390625 -15.703125 C 14.929688 -16.335938 14.40625 -16.832031 13.8125 -17.1875 C 13.21875 -17.550781 12.546875 -17.734375 11.796875 -17.734375 Z M 11.796875 -17.734375 "/></g></g></g><g fill="#ffffff" fill-opacity="1"><g transform="translate(264.000464, 198.486433)"><g><path d="M 8.5625 -21.125 L 8.5625 -6.5 C 8.5625 -5.375 8.78125 -4.582031 9.21875 -4.125 C 9.65625 -3.664062 10.296875 -3.4375 11.140625 -3.4375 C 11.941406 -3.4375 12.726562 -3.679688 13.5 -4.171875 C 14.28125 -4.660156 14.910156 -5.289062 15.390625 -6.0625 L 15.390625 -21.125 L 20.765625 -21.125 L 20.765625 0 L 16.078125 0 L 15.796875 -2.59375 C 15.054688 -1.539062 14.09375 -0.738281 12.90625 -0.1875 C 11.726562 0.351562 10.503906 0.625 9.234375 0.625 C 7.191406 0.625 5.671875 0.0390625 4.671875 -1.125 C 3.671875 -2.289062 3.171875 -3.863281 3.171875 -5.84375 L 3.171875 -21.125 Z M 8.5625 -21.125 "/></g></g></g><g fill="#ffffff" fill-opacity="1"><g transform="translate(292.363729, 198.486433)"><g><path d="M 15.40625 -21.125 L 15.40625 -3.796875 L 20.953125 -3.796875 L 20.953125 0 L 3.875 0 L 3.875 -3.796875 L 10.015625 -3.796875 L 10.015625 -17.34375 L 4.078125 -17.34375 L 4.078125 -21.125 Z M 11.953125 -31.84375 C 12.929688 -31.84375 13.726562 -31.535156 14.34375 -30.921875 C 14.957031 -30.316406 15.265625 -29.566406 15.265625 -28.671875 C 15.265625 -27.753906 14.957031 -26.988281 14.34375 -26.375 C 13.726562 -25.757812 12.929688 -25.453125 11.953125 -25.453125 C 10.960938 -25.453125 10.160156 -25.757812 9.546875 -26.375 C 8.929688 -26.988281 8.625 -27.753906 8.625 -28.671875 C 8.625 -29.566406 8.929688 -30.316406 9.546875 -30.921875 C 10.160156 -31.535156 10.960938 -31.84375 11.953125 -31.84375 Z M 11.953125 -31.84375 "/></g></g></g><g clip-path="url(#b3d44db5d6)"><path fill="#1a1d23" d="M 324.023438 229.53125 C 322.699219 235.710938 318.382812 240.828125 312.511719 243.175781 C 306.871094 245.367188 300.53125 244.847656 295.316406 241.769531 C 292.734375 240.515625 289.632812 241.230469 287.851562 243.484375 C 281.289062 251.628906 272.089844 257.234375 261.839844 259.335938 C 256.976562 274.390625 246.472656 286.984375 232.527344 294.460938 C 225.011719 298.449219 216.539062 300.265625 208.046875 299.722656 C 196.519531 314.765625 178.644531 323.566406 159.699219 323.53125 C 147.832031 323.554688 136.214844 320.082031 126.300781 313.554688 C 116.386719 307.023438 108.613281 297.726562 103.945312 286.808594 C 97.941406 285.761719 92.085938 283.992188 86.503906 281.550781 C 69.753906 273.347656 57.664062 257.953125 53.65625 239.742188 C 49.648438 221.523438 54.164062 202.480469 65.921875 188.003906 C 77.675781 173.527344 95.394531 165.203125 114.042969 165.390625 C 125.046875 150.222656 142.386719 140.933594 161.105469 140.175781 L 163.003906 140.175781 C 170.132812 140.191406 177.15625 141.886719 183.503906 145.136719 C 195.894531 136.535156 211.261719 133.386719 226.03125 136.425781 C 240.804688 139.472656 253.679688 148.4375 261.65625 161.230469 C 273.492188 161.40625 285.058594 164.742188 295.164062 170.898438 C 305.269531 177.054688 313.542969 185.800781 319.125 196.234375 C 324.636719 206.410156 326.375 218.203125 324.023438 229.53125 Z M 310.925781 200.398438 C 305.964844 191.097656 298.507812 183.359375 289.398438 178.0625 C 280.28125 172.765625 269.871094 170.113281 259.328125 170.410156 L 256.394531 170.410156 L 254.804688 168.328125 C 250.578125 160.566406 244.207031 154.191406 236.445312 149.96875 C 228.609375 146.019531 219.824219 144.355469 211.089844 145.164062 C 202.355469 145.976562 194.023438 149.234375 187.054688 154.558594 L 184.425781 156.578125 L 181.613281 154.863281 L 181.609375 154.863281 C 176.082031 151.484375 169.730469 149.6875 163.25 149.664062 L 161.65625 149.664062 C 145.007812 150.300781 129.703125 158.972656 120.59375 172.917969 L 119 175.363281 L 110.925781 175.363281 L 110.925781 175.367188 C 100.929688 175.335938 91.140625 178.210938 82.753906 183.644531 C 74.367188 189.082031 67.734375 196.832031 63.675781 205.96875 C 60.816406 212.421875 59.339844 219.40625 59.328125 226.46875 C 59.316406 236.460938 62.199219 246.242188 67.628906 254.625 C 73.0625 263.011719 80.808594 269.644531 89.929688 273.71875 C 95.6875 276.109375 101.738281 277.714844 107.921875 278.492188 L 110.738281 278.859375 L 111.714844 281.488281 L 111.71875 281.488281 C 118.242188 298.214844 132.933594 310.382812 150.578125 313.679688 C 153.570312 314.1875 156.601562 314.453125 159.636719 314.472656 C 176.480469 314.507812 192.261719 306.273438 201.867188 292.441406 L 203.519531 290.054688 L 206.394531 290.480469 L 206.394531 290.488281 C 213.914062 291.445312 221.546875 290.054688 228.246094 286.507812 C 240.800781 279.652344 249.9375 267.875 253.457031 254.007812 L 254.316406 250.886719 L 257.496094 250.460938 C 266.59375 249.289062 274.871094 244.613281 280.570312 237.421875 C 282.929688 234.621094 286.1875 232.71875 289.789062 232.035156 C 293.386719 231.355469 297.117188 231.941406 300.339844 233.691406 C 302.902344 235.238281 306.035156 235.527344 308.84375 234.484375 C 311.914062 233.390625 314.222656 230.804688 314.964844 227.632812 C 316.859375 218.460938 315.425781 208.914062 310.925781 200.707031 Z M 310.925781 200.398438 " fill-opacity="1" fill-rule="nonzero"/></g><g clip-path="url(#f8241aaa43)"><path fill="#1a1d23" d="M 269.554688 228.371094 C 267.023438 231.808594 263.46875 234.363281 259.40625 235.671875 C 255.34375 236.976562 250.972656 236.972656 246.90625 235.652344 C 245.449219 235.195312 243.863281 235.476562 242.644531 236.398438 C 241.429688 237.320312 240.738281 238.777344 240.789062 240.304688 C 240.96875 247.136719 239.234375 253.886719 235.785156 259.789062 C 232.335938 265.695312 227.308594 270.519531 221.261719 273.71875 C 216.074219 276.496094 209.980469 277.050781 204.375 275.25 C 204.375 274.574219 204.800781 274.023438 204.925781 273.414062 C 207.070312 264.980469 205.617188 256.042969 200.917969 248.722656 C 196.222656 241.398438 188.695312 236.359375 180.140625 234.796875 C 178.257812 234.484375 176.351562 234.316406 174.445312 234.304688 C 168.164062 234.359375 162.046875 236.296875 156.882812 239.875 C 151.601562 243.519531 147.582031 248.714844 145.378906 254.742188 C 144.945312 256.046875 145.105469 257.472656 145.8125 258.644531 C 146.519531 259.824219 147.699219 260.632812 149.050781 260.867188 C 151.328125 261.25 153.558594 259.964844 154.371094 257.804688 C 155.902344 253.804688 158.585938 250.355469 162.085938 247.890625 C 167.085938 244.328125 173.359375 243.039062 179.359375 244.34375 C 185.363281 245.648438 190.535156 249.425781 193.605469 254.742188 C 196.382812 260.835938 196.882812 267.722656 195.007812 274.148438 L 194.273438 276.164062 C 190.609375 286.675781 182.371094 294.957031 171.878906 298.679688 C 161.386719 302.402344 149.773438 301.164062 140.300781 295.3125 C 130.832031 289.460938 124.527344 279.628906 123.160156 268.574219 C 122.742188 266.238281 120.707031 264.535156 118.324219 264.539062 C 110.546875 264.753906 102.816406 263.25 95.683594 260.132812 C 84.058594 254.839844 75.976562 243.941406 74.289062 231.277344 C 72.605469 218.621094 77.546875 205.984375 87.378906 197.832031 C 97.210938 189.683594 110.542969 187.160156 122.671875 191.160156 L 123.652344 191.160156 C 128.015625 192.753906 131.785156 195.652344 134.445312 199.464844 C 137.105469 203.273438 138.53125 207.8125 138.523438 212.457031 C 138.5 219.503906 135.054688 226.105469 129.28125 230.144531 C 127.261719 231.472656 126.550781 234.101562 127.628906 236.265625 C 128.457031 237.957031 130.15625 239.039062 132.039062 239.078125 C 132.957031 239.082031 133.851562 238.804688 134.605469 238.285156 C 142.679688 232.675781 147.679688 223.625 148.132812 213.808594 C 148.304688 207.726562 146.75 201.726562 143.640625 196.5 C 140.527344 191.28125 135.996094 187.050781 130.570312 184.308594 C 133.554688 178.4375 138.046875 173.472656 143.585938 169.914062 C 149.121094 166.351562 155.507812 164.328125 162.085938 164.046875 C 169.734375 163.664062 177.03125 167.28125 181.363281 173.597656 C 182.273438 174.933594 183.785156 175.738281 185.402344 175.742188 C 187.019531 175.738281 188.519531 174.902344 189.378906 173.539062 C 193.738281 166.65625 200.621094 161.765625 208.558594 159.929688 C 216.492188 158.089844 224.828125 159.449219 231.769531 163.714844 C 238.707031 167.980469 243.683594 174.804688 245.621094 182.714844 C 247.089844 188.820312 246.636719 195.234375 244.335938 201.078125 C 242.929688 205.375 239.980469 209 236.058594 211.257812 C 232.140625 213.515625 227.527344 214.25 223.105469 213.316406 C 218.566406 212.355469 214.574219 209.679688 211.960938 205.851562 C 210.730469 203.90625 208.320312 203.074219 206.148438 203.832031 C 204.246094 204.523438 202.972656 206.332031 202.96875 208.359375 C 202.984375 209.179688 203.214844 209.984375 203.640625 210.6875 C 206.230469 214.742188 209.8125 218.066406 214.046875 220.355469 C 220.476562 223.757812 227.992188 224.476562 234.957031 222.355469 C 241.914062 220.234375 247.753906 215.441406 251.195312 209.03125 C 255.015625 201.808594 256.550781 193.589844 255.597656 185.46875 C 264.132812 184.347656 272.808594 185.855469 280.460938 189.789062 C 288.117188 193.726562 294.390625 199.90625 298.4375 207.503906 C 300.285156 210.953125 301.292969 214.789062 301.375 218.703125 C 295.707031 217.074219 289.683594 217.121094 284.035156 218.835938 C 278.390625 220.554688 273.359375 223.859375 269.554688 228.375 Z M 269.554688 228.371094 " fill-opacity="1" fill-rule="nonzero"/></g></svg>