<svg xmlns="http://www.w3.org/2000/svg" xmlns:xlink="http://www.w3.org/1999/xlink" width="500" zoomAndPan="magnify" viewBox="0 0 375 374.999991" height="500" preserveAspectRatio="xMidYMid meet" version="1.0"><defs><g/><clipPath id="56fdf62ffa"><path d="M 83.867188 44.902344 L 298.367188 44.902344 L 298.367188 329.902344 L 83.867188 329.902344 Z M 83.867188 44.902344 " clip-rule="nonzero"/></clipPath></defs><g clip-path="url(#56fdf62ffa)"><path fill="#1a1d23" d="M 210.9375 203.273438 L 204.503906 216.042969 L 226.210938 216.042969 L 233.816406 203.273438 Z M 143.421875 203.273438 L 135.820312 216.042969 L 183.503906 216.042969 L 189.9375 203.273438 Z M 160.109375 158.992188 L 152.507812 171.761719 L 170.902344 171.761719 L 177.277344 158.992188 Z M 187.078125 142.738281 L 185.039062 146.808594 L 181.925781 153.019531 L 157.574219 201.785156 L 175.203125 201.785156 L 194.578125 162.976562 L 201.925781 148.316406 L 204.722656 142.738281 Z M 149.710938 217.53125 L 122.964844 271.09375 C 121.75 267.726562 121.179688 263.699219 121.179688 259.050781 C 121.179688 252.371094 122.011719 245.964844 123.128906 239.007812 C 124.242188 232.328125 125.078125 225.367188 125.078125 217.847656 C 125.355469 200.03125 117.558594 190.566406 105.023438 187.507812 L 105.023438 186.949219 C 117.558594 183.609375 125.355469 174.699219 125.078125 156.882812 C 125.078125 149.367188 124.242188 142.6875 123.128906 135.722656 C 122.011719 129.042969 121.179688 122.363281 121.179688 115.960938 C 121.179688 100.925781 126.75 92.019531 143.183594 92.019531 L 148.199219 92.019531 L 148.199219 76.707031 L 142.347656 76.707031 C 118.675781 76.707031 101.960938 87.5625 101.960938 113.175781 C 101.960938 120.96875 103.074219 128.488281 104.1875 136.28125 C 105.300781 144.078125 106.417969 151.871094 106.417969 159.667969 C 106.417969 169.414062 103.628906 180.265625 83.855469 180.265625 L 83.855469 194.464844 C 103.628906 194.464844 106.417969 206.433594 106.417969 215.0625 C 106.417969 222.578125 105.300781 230.101562 104.1875 237.617188 C 103.074219 245.132812 101.960938 252.925781 101.960938 260.441406 C 101.960938 274.507812 106.28125 284.042969 113.492188 290.0625 L 103.925781 309.21875 L 96.5625 323.90625 L 93.589844 329.835938 L 111.238281 329.835938 L 113.277344 325.769531 L 117.945312 316.460938 L 167.339844 217.53125 Z M 275.789062 160.226562 C 275.789062 152.707031 276.902344 145.1875 278.019531 137.671875 C 279.132812 130.15625 280.246094 122.363281 280.246094 114.847656 C 280.246094 100.792969 275.933594 91.257812 268.726562 85.238281 L 278.835938 65.179688 L 286.179688 50.519531 L 288.980469 44.941406 L 271.332031 44.941406 L 269.296875 49.011719 L 266.179688 55.222656 L 254.53125 78.347656 C 254.355469 78.304688 246.988281 92.960938 247.148438 93 L 214.65625 157.503906 L 232.324219 157.503906 L 259.21875 104.121094 C 260.445312 107.503906 261.023438 111.554688 261.023438 116.238281 C 261.023438 122.921875 260.191406 129.324219 259.078125 136.28125 C 257.964844 142.964844 257.125 149.921875 257.125 157.441406 C 256.847656 175.257812 264.652344 184.722656 277.183594 187.78125 L 277.183594 188.339844 C 264.652344 191.679688 256.847656 200.589844 257.125 218.40625 C 257.125 225.921875 257.964844 232.601562 259.078125 239.566406 C 260.191406 246.246094 261.023438 252.925781 261.023438 259.328125 C 261.023438 274.363281 255.453125 283.269531 239.023438 283.269531 L 234.011719 283.269531 L 234.011719 298.582031 L 239.859375 298.582031 C 263.535156 298.582031 280.246094 287.722656 280.246094 262.109375 C 280.246094 254.316406 279.132812 246.800781 278.019531 239.007812 C 276.902344 231.210938 275.789062 223.417969 275.789062 215.621094 C 275.789062 205.878906 278.574219 195.023438 298.351562 195.023438 L 298.351562 180.824219 C 278.574219 180.824219 275.789062 168.855469 275.789062 160.226562 Z M 206.726562 173.25 L 183.082031 220.1875 L 175.71875 234.878906 L 172.742188 240.808594 L 190.390625 240.808594 L 192.429688 236.738281 L 197.097656 227.429688 L 224.394531 173.25 Z M 250.503906 158.992188 L 242.898438 171.761719 L 191.855469 171.761719 L 195.910156 163.640625 L 198.246094 158.992188 L 250.503906 158.992188 " fill-opacity="1" fill-rule="nonzero"/></g><g fill="#1a1d23" fill-opacity="1"><g transform="translate(88.629389, 359.476618)"><g><path d="M 6.78125 -22.734375 L 6.78125 0 L 1.96875 0 L 1.96875 -22.734375 Z M 6.78125 -22.734375 "/></g></g></g><g fill="#1a1d23" fill-opacity="1"><g transform="translate(101.653662, 359.476618)"><g><path d="M 17.78125 -17.046875 L 11.828125 0 L 6.5 0 L 0.53125 -17.046875 L 5.53125 -17.046875 L 9.078125 -4.859375 L 9.25 -4.859375 L 12.78125 -17.046875 Z M 17.78125 -17.046875 "/></g></g></g><g fill="#1a1d23" fill-opacity="1"><g transform="translate(124.226438, 359.476618)"><g><path d="M 6.75 0.328125 C 5.125 0.328125 3.773438 -0.0976562 2.703125 -0.953125 C 1.628906 -1.804688 1.09375 -3.078125 1.09375 -4.765625 C 1.09375 -6.035156 1.390625 -7.03125 1.984375 -7.75 C 2.585938 -8.476562 3.375 -9.007812 4.34375 -9.34375 C 5.320312 -9.6875 6.375 -9.910156 7.5 -10.015625 C 8.976562 -10.160156 10.035156 -10.3125 10.671875 -10.46875 C 11.304688 -10.632812 11.625 -10.992188 11.625 -11.546875 L 11.625 -11.609375 C 11.625 -12.316406 11.398438 -12.863281 10.953125 -13.25 C 10.515625 -13.632812 9.894531 -13.828125 9.09375 -13.828125 C 8.238281 -13.828125 7.5625 -13.640625 7.0625 -13.265625 C 6.5625 -12.898438 6.226562 -12.429688 6.0625 -11.859375 L 1.6875 -12.21875 C 2.007812 -13.769531 2.816406 -15 4.109375 -15.90625 C 5.398438 -16.820312 7.066406 -17.28125 9.109375 -17.28125 C 10.378906 -17.28125 11.566406 -17.078125 12.671875 -16.671875 C 13.773438 -16.273438 14.664062 -15.648438 15.34375 -14.796875 C 16.019531 -13.953125 16.359375 -12.851562 16.359375 -11.5 L 16.359375 0 L 11.875 0 L 11.875 -2.359375 L 11.734375 -2.359375 C 11.316406 -1.566406 10.695312 -0.921875 9.875 -0.421875 C 9.050781 0.078125 8.007812 0.328125 6.75 0.328125 Z M 8.109375 -2.9375 C 9.140625 -2.9375 9.988281 -3.238281 10.65625 -3.84375 C 11.320312 -4.445312 11.65625 -5.195312 11.65625 -6.09375 L 11.65625 -7.90625 C 11.46875 -7.78125 11.179688 -7.664062 10.796875 -7.5625 C 10.410156 -7.46875 9.992188 -7.382812 9.546875 -7.3125 C 9.109375 -7.25 8.71875 -7.191406 8.375 -7.140625 C 7.539062 -7.023438 6.867188 -6.789062 6.359375 -6.4375 C 5.859375 -6.09375 5.609375 -5.585938 5.609375 -4.921875 C 5.609375 -4.265625 5.84375 -3.769531 6.3125 -3.4375 C 6.78125 -3.101562 7.378906 -2.9375 8.109375 -2.9375 Z M 8.109375 -2.9375 "/></g></g></g><g fill="#1a1d23" fill-opacity="1"><g transform="translate(146.621565, 359.476618)"><g><path d="M 6.625 -9.859375 L 6.625 0 L 1.890625 0 L 1.890625 -17.046875 L 6.390625 -17.046875 L 6.390625 -14.046875 L 6.59375 -14.046875 C 6.976562 -15.035156 7.613281 -15.820312 8.5 -16.40625 C 9.382812 -16.988281 10.457031 -17.28125 11.71875 -17.28125 C 13.5 -17.28125 14.925781 -16.707031 16 -15.5625 C 17.070312 -14.414062 17.609375 -12.847656 17.609375 -10.859375 L 17.609375 0 L 12.875 0 L 12.875 -10.015625 C 12.882812 -11.054688 12.617188 -11.867188 12.078125 -12.453125 C 11.535156 -13.046875 10.789062 -13.34375 9.84375 -13.34375 C 8.894531 -13.34375 8.117188 -13.035156 7.515625 -12.421875 C 6.921875 -11.816406 6.625 -10.960938 6.625 -9.859375 Z M 6.625 -9.859375 "/></g></g></g><g fill="#1a1d23" fill-opacity="1"><g transform="translate(170.315738, 359.476618)"><g><path d="M 9.59375 0.328125 C 7.863281 0.328125 6.367188 -0.0351562 5.109375 -0.765625 C 3.859375 -1.503906 2.894531 -2.535156 2.21875 -3.859375 C 1.539062 -5.179688 1.203125 -6.710938 1.203125 -8.453125 C 1.203125 -10.222656 1.539062 -11.765625 2.21875 -13.078125 C 2.894531 -14.398438 3.859375 -15.429688 5.109375 -16.171875 C 6.367188 -16.910156 7.863281 -17.28125 9.59375 -17.28125 C 11.320312 -17.28125 12.8125 -16.910156 14.0625 -16.171875 C 15.3125 -15.429688 16.273438 -14.398438 16.953125 -13.078125 C 17.640625 -11.765625 17.984375 -10.222656 17.984375 -8.453125 C 17.984375 -6.710938 17.640625 -5.179688 16.953125 -3.859375 C 16.273438 -2.535156 15.3125 -1.503906 14.0625 -0.765625 C 12.8125 -0.0351562 11.320312 0.328125 9.59375 0.328125 Z M 9.609375 -3.328125 C 10.785156 -3.328125 11.671875 -3.816406 12.265625 -4.796875 C 12.867188 -5.773438 13.171875 -7.007812 13.171875 -8.5 C 13.171875 -9.976562 12.867188 -11.207031 12.265625 -12.1875 C 11.671875 -13.175781 10.785156 -13.671875 9.609375 -13.671875 C 8.421875 -13.671875 7.519531 -13.175781 6.90625 -12.1875 C 6.300781 -11.207031 6 -9.976562 6 -8.5 C 6 -7.007812 6.300781 -5.773438 6.90625 -4.796875 C 7.519531 -3.816406 8.421875 -3.328125 9.609375 -3.328125 Z M 9.609375 -3.328125 "/></g></g></g><g fill="#1a1d23" fill-opacity="1"><g transform="translate(193.754546, 359.476618)"><g><path d="M 16.078125 -12.1875 L 11.75 -11.921875 C 11.625 -12.472656 11.320312 -12.941406 10.84375 -13.328125 C 10.363281 -13.722656 9.710938 -13.921875 8.890625 -13.921875 C 8.160156 -13.921875 7.539062 -13.765625 7.03125 -13.453125 C 6.519531 -13.148438 6.269531 -12.742188 6.28125 -12.234375 C 6.269531 -11.828125 6.429688 -11.484375 6.765625 -11.203125 C 7.097656 -10.921875 7.660156 -10.695312 8.453125 -10.53125 L 11.53125 -9.90625 C 14.8125 -9.226562 16.457031 -7.6875 16.46875 -5.28125 C 16.46875 -4.164062 16.140625 -3.1875 15.484375 -2.34375 C 14.828125 -1.5 13.925781 -0.84375 12.78125 -0.375 C 11.644531 0.09375 10.34375 0.328125 8.875 0.328125 C 6.613281 0.328125 4.8125 -0.140625 3.46875 -1.078125 C 2.132812 -2.023438 1.351562 -3.3125 1.125 -4.9375 L 5.78125 -5.1875 C 5.925781 -4.488281 6.265625 -3.960938 6.796875 -3.609375 C 7.335938 -3.253906 8.03125 -3.078125 8.875 -3.078125 C 9.707031 -3.078125 10.375 -3.238281 10.875 -3.5625 C 11.382812 -3.882812 11.644531 -4.300781 11.65625 -4.8125 C 11.632812 -5.65625 10.90625 -6.21875 9.46875 -6.5 L 6.515625 -7.09375 C 3.210938 -7.75 1.570312 -9.375 1.59375 -11.96875 C 1.582031 -13.613281 2.238281 -14.910156 3.5625 -15.859375 C 4.882812 -16.804688 6.632812 -17.28125 8.8125 -17.28125 C 10.96875 -17.28125 12.664062 -16.820312 13.90625 -15.90625 C 15.144531 -15 15.867188 -13.757812 16.078125 -12.1875 Z M 16.078125 -12.1875 "/></g></g></g><g fill="#1a1d23" fill-opacity="1"><g transform="translate(215.572328, 359.476618)"><g><path d="M 17.890625 6.390625 L 17.890625 -17.046875 L 13.234375 -17.046875 L 13.234375 -14.1875 L 13.015625 -14.1875 C 12.804688 -14.65625 12.503906 -15.125 12.109375 -15.59375 C 11.710938 -16.070312 11.191406 -16.472656 10.546875 -16.796875 C 9.910156 -17.117188 9.117188 -17.28125 8.171875 -17.28125 C 6.921875 -17.28125 5.769531 -16.953125 4.71875 -16.296875 C 3.675781 -15.648438 2.835938 -14.675781 2.203125 -13.375 C 1.578125 -12.082031 1.265625 -10.457031 1.265625 -8.5 C 1.265625 -6.601562 1.570312 -5 2.1875 -3.6875 C 2.800781 -2.382812 3.628906 -1.394531 4.671875 -0.71875 C 5.710938 -0.0507812 6.878906 0.28125 8.171875 0.28125 C 9.097656 0.28125 9.878906 0.128906 10.515625 -0.171875 C 11.148438 -0.484375 11.671875 -0.867188 12.078125 -1.328125 C 12.484375 -1.785156 12.796875 -2.253906 13.015625 -2.734375 L 13.15625 -2.734375 L 13.15625 6.390625 Z M 13.265625 -8.53125 C 13.265625 -7.007812 12.953125 -5.785156 12.328125 -4.859375 C 11.703125 -3.941406 10.816406 -3.484375 9.671875 -3.484375 C 8.515625 -3.484375 7.628906 -3.953125 7.015625 -4.890625 C 6.398438 -5.828125 6.09375 -7.039062 6.09375 -8.53125 C 6.09375 -10.007812 6.394531 -11.207031 7 -12.125 C 7.613281 -13.050781 8.503906 -13.515625 9.671875 -13.515625 C 10.828125 -13.515625 11.710938 -13.0625 12.328125 -12.15625 C 12.953125 -11.257812 13.265625 -10.050781 13.265625 -8.53125 Z M 13.265625 -8.53125 "/></g></g></g><g fill="#1a1d23" fill-opacity="1"><g transform="translate(239.599586, 359.476618)"><g><path d="M 12.828125 -7.265625 L 12.828125 -17.046875 L 17.546875 -17.046875 L 17.546875 0 L 13.015625 0 L 13.015625 -3.09375 L 12.828125 -3.09375 C 12.441406 -2.09375 11.800781 -1.289062 10.90625 -0.6875 C 10.019531 -0.0820312 8.9375 0.21875 7.65625 0.21875 C 5.9375 0.21875 4.546875 -0.347656 3.484375 -1.484375 C 2.429688 -2.628906 1.898438 -4.203125 1.890625 -6.203125 L 1.890625 -17.046875 L 6.625 -17.046875 L 6.625 -7.046875 C 6.625 -6.035156 6.890625 -5.238281 7.421875 -4.65625 C 7.960938 -4.070312 8.679688 -3.78125 9.578125 -3.78125 C 10.421875 -3.78125 11.171875 -4.070312 11.828125 -4.65625 C 12.492188 -5.25 12.828125 -6.117188 12.828125 -7.265625 Z M 12.828125 -7.265625 "/></g></g></g><g fill="#1a1d23" fill-opacity="1"><g transform="translate(263.293753, 359.476618)"><g><path d="M 1.890625 0 L 1.890625 -17.046875 L 6.625 -17.046875 L 6.625 0 Z M 4.265625 -19.25 C 3.578125 -19.25 2.976562 -19.484375 2.46875 -19.953125 C 1.96875 -20.421875 1.71875 -20.988281 1.71875 -21.65625 C 1.71875 -22.3125 1.96875 -22.867188 2.46875 -23.328125 C 2.976562 -23.796875 3.578125 -24.03125 4.265625 -24.03125 C 4.972656 -24.03125 5.578125 -23.796875 6.078125 -23.328125 C 6.578125 -22.867188 6.828125 -22.3125 6.828125 -21.65625 C 6.828125 -20.988281 6.578125 -20.421875 6.078125 -19.953125 C 5.578125 -19.484375 4.972656 -19.25 4.265625 -19.25 Z M 4.265625 -19.25 "/></g></g></g><g fill="#1a1d23" fill-opacity="1"><g transform="translate(276.051556, 359.476618)"><g><path d="M 16.078125 -12.1875 L 11.75 -11.921875 C 11.625 -12.472656 11.320312 -12.941406 10.84375 -13.328125 C 10.363281 -13.722656 9.710938 -13.921875 8.890625 -13.921875 C 8.160156 -13.921875 7.539062 -13.765625 7.03125 -13.453125 C 6.519531 -13.148438 6.269531 -12.742188 6.28125 -12.234375 C 6.269531 -11.828125 6.429688 -11.484375 6.765625 -11.203125 C 7.097656 -10.921875 7.660156 -10.695312 8.453125 -10.53125 L 11.53125 -9.90625 C 14.8125 -9.226562 16.457031 -7.6875 16.46875 -5.28125 C 16.46875 -4.164062 16.140625 -3.1875 15.484375 -2.34375 C 14.828125 -1.5 13.925781 -0.84375 12.78125 -0.375 C 11.644531 0.09375 10.34375 0.328125 8.875 0.328125 C 6.613281 0.328125 4.8125 -0.140625 3.46875 -1.078125 C 2.132812 -2.023438 1.351562 -3.3125 1.125 -4.9375 L 5.78125 -5.1875 C 5.925781 -4.488281 6.265625 -3.960938 6.796875 -3.609375 C 7.335938 -3.253906 8.03125 -3.078125 8.875 -3.078125 C 9.707031 -3.078125 10.375 -3.238281 10.875 -3.5625 C 11.382812 -3.882812 11.644531 -4.300781 11.65625 -4.8125 C 11.632812 -5.65625 10.90625 -6.21875 9.46875 -6.5 L 6.515625 -7.09375 C 3.210938 -7.75 1.570312 -9.375 1.59375 -11.96875 C 1.582031 -13.613281 2.238281 -14.910156 3.5625 -15.859375 C 4.882812 -16.804688 6.632812 -17.28125 8.8125 -17.28125 C 10.96875 -17.28125 12.664062 -16.820312 13.90625 -15.90625 C 15.144531 -15 15.867188 -13.757812 16.078125 -12.1875 Z M 16.078125 -12.1875 "/></g></g></g></svg>