<svg xmlns="http://www.w3.org/2000/svg" xmlns:xlink="http://www.w3.org/1999/xlink" width="500" zoomAndPan="magnify" viewBox="0 0 375 374.999991" height="500" preserveAspectRatio="xMidYMid meet" version="1.0"><defs><g/><clipPath id="bc56bb590c"><path d="M 4.128906 169 L 371 169 L 371 206.570312 L 4.128906 206.570312 Z M 4.128906 169 " clip-rule="nonzero"/></clipPath><clipPath id="8e201e214a"><path d="M 4.128906 168.828125 L 371.101562 168.828125 L 371.101562 206.570312 L 4.128906 206.570312 Z M 4.128906 168.828125 " clip-rule="nonzero"/></clipPath></defs><g clip-path="url(#bc56bb590c)"><path fill="#1a1d23" d="M 363.355469 206.164062 L 11.875 206.164062 C 7.820312 206.164062 4.492188 202.875 4.492188 198.707031 L 4.492188 176.695312 C 4.492188 172.597656 7.820312 169.234375 11.875 169.234375 L 363.355469 169.234375 C 367.40625 169.234375 370.738281 172.597656 370.738281 176.695312 L 370.738281 198.707031 C 370.738281 202.875 367.480469 206.164062 363.355469 206.164062 Z M 363.355469 206.164062 " fill-opacity="1" fill-rule="nonzero"/></g><g clip-path="url(#8e201e214a)"><path fill="#ffffff" d="M 363.355469 206.164062 L 363.355469 205.796875 L 11.875 205.796875 C 9.921875 205.796875 8.183594 204.996094 6.878906 203.75 C 5.648438 202.507812 4.851562 200.679688 4.851562 198.707031 L 4.851562 176.695312 C 4.851562 174.71875 5.648438 172.964844 6.878906 171.648438 C 8.183594 170.40625 9.921875 169.601562 11.875 169.601562 L 363.355469 169.601562 C 365.308594 169.601562 367.046875 170.40625 368.347656 171.648438 C 369.652344 172.964844 370.375 174.71875 370.375 176.695312 L 370.375 198.707031 C 370.375 200.679688 369.578125 202.433594 368.347656 203.75 C 367.046875 205.066406 365.308594 205.796875 363.355469 205.796875 L 363.355469 206.53125 C 367.625 206.53125 371.101562 203.019531 371.101562 198.707031 L 371.101562 176.695312 C 371.101562 172.378906 367.625 168.871094 363.355469 168.871094 L 11.875 168.871094 C 7.605469 168.871094 4.128906 172.378906 4.128906 176.695312 L 4.128906 198.707031 C 4.128906 203.019531 7.605469 206.53125 11.875 206.53125 L 363.355469 206.53125 Z M 363.355469 206.164062 " fill-opacity="1" fill-rule="nonzero"/></g><path fill="#ffffff" d="M 360.023438 193 C 359.808594 193 359.589844 192.929688 359.445312 192.710938 L 350.757812 183.933594 C 350.394531 183.570312 350.394531 183.054688 350.757812 182.691406 C 351.121094 182.324219 351.625 182.324219 351.988281 182.691406 L 360.675781 191.464844 C 361.039062 191.832031 361.039062 192.34375 360.675781 192.710938 C 360.457031 192.855469 360.242188 193 360.023438 193 Z M 360.023438 193 " fill-opacity="1" fill-rule="nonzero"/><path fill="#ffffff" d="M 351.335938 193 C 351.121094 193 350.902344 192.929688 350.757812 192.710938 C 350.394531 192.34375 350.394531 191.832031 350.757812 191.464844 L 359.445312 182.691406 C 359.808594 182.324219 360.3125 182.324219 360.675781 182.691406 C 361.039062 183.054688 361.039062 183.570312 360.675781 183.933594 L 351.988281 192.710938 C 351.769531 192.855469 351.554688 193 351.335938 193 Z M 351.335938 193 " fill-opacity="1" fill-rule="nonzero"/><path fill="#ffffff" d="M 34.316406 194.171875 L 29.105469 188.90625 C 29.757812 187.882812 30.117188 186.640625 30.117188 185.25 C 30.117188 181.375 27.003906 178.230469 23.167969 178.230469 C 19.332031 178.230469 16.21875 181.375 16.21875 185.25 C 16.21875 189.125 19.332031 192.269531 23.167969 192.269531 C 24.472656 192.269531 25.628906 191.90625 26.644531 191.320312 L 31.855469 196.585938 C 32.507812 197.242188 33.59375 197.242188 34.316406 196.585938 C 34.96875 196 34.96875 194.902344 34.316406 194.171875 Z M 18.96875 185.324219 C 18.96875 182.984375 20.851562 181.082031 23.097656 181.082031 C 25.414062 181.082031 27.296875 182.984375 27.296875 185.324219 C 27.296875 187.664062 25.414062 189.492188 23.097656 189.492188 C 20.851562 189.492188 18.96875 187.589844 18.96875 185.324219 Z M 18.96875 185.324219 " fill-opacity="1" fill-rule="nonzero"/><g fill="#ffffff" fill-opacity="1"><g transform="translate(77.224607, 197.136004)"><g><path d="M 6.109375 -20.453125 L 6.109375 0 L 1.78125 0 L 1.78125 -20.453125 Z M 6.109375 -20.453125 "/></g></g></g><g fill="#ffffff" fill-opacity="1"><g transform="translate(92.960556, 197.136004)"><g><path d="M 16 -15.34375 L 10.640625 0 L 5.84375 0 L 0.484375 -15.34375 L 4.96875 -15.34375 L 8.15625 -4.359375 L 8.3125 -4.359375 L 11.5 -15.34375 Z M 16 -15.34375 "/></g></g></g><g fill="#ffffff" fill-opacity="1"><g transform="translate(117.283521, 197.136004)"><g><path d="M 6.078125 0.296875 C 4.609375 0.296875 3.390625 -0.0820312 2.421875 -0.84375 C 1.460938 -1.613281 0.984375 -2.757812 0.984375 -4.28125 C 0.984375 -5.425781 1.25 -6.320312 1.78125 -6.96875 C 2.320312 -7.625 3.03125 -8.101562 3.90625 -8.40625 C 4.78125 -8.71875 5.722656 -8.921875 6.734375 -9.015625 C 8.066406 -9.140625 9.019531 -9.273438 9.59375 -9.421875 C 10.164062 -9.566406 10.453125 -9.890625 10.453125 -10.390625 L 10.453125 -10.453125 C 10.453125 -11.078125 10.253906 -11.5625 9.859375 -11.90625 C 9.460938 -12.257812 8.90625 -12.4375 8.1875 -12.4375 C 7.414062 -12.4375 6.800781 -12.269531 6.34375 -11.9375 C 5.894531 -11.601562 5.597656 -11.179688 5.453125 -10.671875 L 1.515625 -10.984375 C 1.804688 -12.378906 2.53125 -13.488281 3.6875 -14.3125 C 4.851562 -15.132812 6.359375 -15.546875 8.203125 -15.546875 C 9.335938 -15.546875 10.398438 -15.363281 11.390625 -15 C 12.390625 -14.644531 13.191406 -14.082031 13.796875 -13.3125 C 14.410156 -12.550781 14.71875 -11.5625 14.71875 -10.34375 L 14.71875 0 L 10.671875 0 L 10.671875 -2.125 L 10.5625 -2.125 C 10.1875 -1.414062 9.625 -0.832031 8.875 -0.375 C 8.132812 0.0703125 7.203125 0.296875 6.078125 0.296875 Z M 7.296875 -2.640625 C 8.222656 -2.640625 8.984375 -2.910156 9.578125 -3.453125 C 10.179688 -4.003906 10.484375 -4.679688 10.484375 -5.484375 L 10.484375 -7.109375 C 10.316406 -6.992188 10.054688 -6.894531 9.703125 -6.8125 C 9.359375 -6.726562 8.988281 -6.648438 8.59375 -6.578125 C 8.195312 -6.515625 7.84375 -6.460938 7.53125 -6.421875 C 6.78125 -6.316406 6.175781 -6.109375 5.71875 -5.796875 C 5.269531 -5.484375 5.046875 -5.023438 5.046875 -4.421875 C 5.046875 -3.835938 5.253906 -3.394531 5.671875 -3.09375 C 6.097656 -2.789062 6.640625 -2.640625 7.296875 -2.640625 Z M 7.296875 -2.640625 "/></g></g></g><g fill="#ffffff" fill-opacity="1"><g transform="translate(141.44673, 197.136004)"><g><path d="M 5.953125 -8.875 L 5.953125 0 L 1.703125 0 L 1.703125 -15.34375 L 5.75 -15.34375 L 5.75 -12.640625 L 5.9375 -12.640625 C 6.28125 -13.523438 6.847656 -14.226562 7.640625 -14.75 C 8.441406 -15.28125 9.410156 -15.546875 10.546875 -15.546875 C 12.140625 -15.546875 13.421875 -15.03125 14.390625 -14 C 15.359375 -12.96875 15.84375 -11.554688 15.84375 -9.765625 L 15.84375 0 L 11.578125 0 L 11.578125 -9.015625 C 11.585938 -9.953125 11.347656 -10.679688 10.859375 -11.203125 C 10.378906 -11.734375 9.710938 -12 8.859375 -12 C 8.003906 -12 7.304688 -11.722656 6.765625 -11.171875 C 6.234375 -10.628906 5.960938 -9.863281 5.953125 -8.875 Z M 5.953125 -8.875 "/></g></g></g><g fill="#ffffff" fill-opacity="1"><g transform="translate(166.778179, 197.136004)"><g><path d="M 8.625 0.296875 C 7.070312 0.296875 5.734375 -0.03125 4.609375 -0.6875 C 3.484375 -1.351562 2.613281 -2.28125 2 -3.46875 C 1.382812 -4.65625 1.078125 -6.035156 1.078125 -7.609375 C 1.078125 -9.191406 1.382812 -10.578125 2 -11.765625 C 2.613281 -12.953125 3.484375 -13.878906 4.609375 -14.546875 C 5.734375 -15.210938 7.070312 -15.546875 8.625 -15.546875 C 10.175781 -15.546875 11.515625 -15.210938 12.640625 -14.546875 C 13.773438 -13.878906 14.648438 -12.953125 15.265625 -11.765625 C 15.878906 -10.578125 16.1875 -9.191406 16.1875 -7.609375 C 16.1875 -6.035156 15.878906 -4.65625 15.265625 -3.46875 C 14.648438 -2.28125 13.773438 -1.351562 12.640625 -0.6875 C 11.515625 -0.03125 10.175781 0.296875 8.625 0.296875 Z M 8.65625 -3 C 9.707031 -3 10.503906 -3.4375 11.046875 -4.3125 C 11.585938 -5.195312 11.859375 -6.304688 11.859375 -7.640625 C 11.859375 -8.972656 11.585938 -10.082031 11.046875 -10.96875 C 10.503906 -11.851562 9.707031 -12.296875 8.65625 -12.296875 C 7.582031 -12.296875 6.769531 -11.851562 6.21875 -10.96875 C 5.675781 -10.082031 5.40625 -8.972656 5.40625 -7.640625 C 5.40625 -6.304688 5.675781 -5.195312 6.21875 -4.3125 C 6.769531 -3.4375 7.582031 -3 8.65625 -3 Z M 8.65625 -3 "/></g></g></g><g fill="#ffffff" fill-opacity="1"><g transform="translate(191.879973, 197.136004)"><g><path d="M 14.46875 -10.96875 L 10.5625 -10.734375 C 10.457031 -11.222656 10.1875 -11.644531 9.75 -12 C 9.320312 -12.351562 8.738281 -12.53125 8 -12.53125 C 7.34375 -12.53125 6.785156 -12.390625 6.328125 -12.109375 C 5.867188 -11.835938 5.644531 -11.46875 5.65625 -11 C 5.644531 -10.632812 5.785156 -10.328125 6.078125 -10.078125 C 6.378906 -9.828125 6.882812 -9.625 7.59375 -9.46875 L 10.375 -8.90625 C 13.320312 -8.300781 14.800781 -6.914062 14.8125 -4.75 C 14.8125 -3.75 14.515625 -2.867188 13.921875 -2.109375 C 13.335938 -1.347656 12.53125 -0.753906 11.5 -0.328125 C 10.476562 0.0859375 9.304688 0.296875 7.984375 0.296875 C 5.953125 0.296875 4.332031 -0.125 3.125 -0.96875 C 1.914062 -1.820312 1.210938 -2.976562 1.015625 -4.4375 L 5.203125 -4.671875 C 5.335938 -4.035156 5.644531 -3.554688 6.125 -3.234375 C 6.601562 -2.921875 7.222656 -2.765625 7.984375 -2.765625 C 8.734375 -2.765625 9.335938 -2.910156 9.796875 -3.203125 C 10.253906 -3.492188 10.484375 -3.867188 10.484375 -4.328125 C 10.460938 -5.085938 9.804688 -5.597656 8.515625 -5.859375 L 5.859375 -6.375 C 2.890625 -6.96875 1.410156 -8.429688 1.421875 -10.765625 C 1.421875 -12.242188 2.015625 -13.410156 3.203125 -14.265625 C 4.390625 -15.117188 5.96875 -15.546875 7.9375 -15.546875 C 9.875 -15.546875 11.398438 -15.132812 12.515625 -14.3125 C 13.628906 -13.488281 14.28125 -12.375 14.46875 -10.96875 Z M 14.46875 -10.96875 "/></g></g></g><g fill="#ffffff" fill-opacity="1"><g transform="translate(215.523974, 197.136004)"><g><path d="M 16.078125 5.75 L 16.078125 -15.34375 L 11.890625 -15.34375 L 11.890625 -12.765625 L 11.703125 -12.765625 C 11.503906 -13.179688 11.226562 -13.601562 10.875 -14.03125 C 10.519531 -14.457031 10.050781 -14.816406 9.46875 -15.109375 C 8.894531 -15.398438 8.179688 -15.546875 7.328125 -15.546875 C 6.203125 -15.546875 5.171875 -15.253906 4.234375 -14.671875 C 3.296875 -14.085938 2.539062 -13.207031 1.96875 -12.03125 C 1.40625 -10.863281 1.125 -9.40625 1.125 -7.65625 C 1.125 -5.9375 1.398438 -4.488281 1.953125 -3.3125 C 2.503906 -2.144531 3.25 -1.257812 4.1875 -0.65625 C 5.125 -0.0507812 6.175781 0.25 7.34375 0.25 C 8.164062 0.25 8.863281 0.113281 9.4375 -0.15625 C 10.019531 -0.425781 10.492188 -0.769531 10.859375 -1.1875 C 11.222656 -1.601562 11.503906 -2.023438 11.703125 -2.453125 L 11.828125 -2.453125 L 11.828125 5.75 Z M 11.921875 -7.671875 C 11.921875 -6.304688 11.640625 -5.207031 11.078125 -4.375 C 10.515625 -3.550781 9.71875 -3.140625 8.6875 -3.140625 C 7.644531 -3.140625 6.847656 -3.554688 6.296875 -4.390625 C 5.742188 -5.234375 5.46875 -6.328125 5.46875 -7.671875 C 5.46875 -9.003906 5.738281 -10.082031 6.28125 -10.90625 C 6.832031 -11.738281 7.632812 -12.15625 8.6875 -12.15625 C 9.71875 -12.15625 10.515625 -11.75 11.078125 -10.9375 C 11.640625 -10.132812 11.921875 -9.046875 11.921875 -7.671875 Z M 11.921875 -7.671875 "/></g></g></g><g fill="#ffffff" fill-opacity="1"><g transform="translate(241.154968, 197.136004)"><g><path d="M 11.53125 -6.53125 L 11.53125 -15.34375 L 15.796875 -15.34375 L 15.796875 0 L 11.703125 0 L 11.703125 -2.78125 L 11.546875 -2.78125 C 11.203125 -1.882812 10.628906 -1.160156 9.828125 -0.609375 C 9.023438 -0.0664062 8.046875 0.203125 6.890625 0.203125 C 5.347656 0.203125 4.097656 -0.3125 3.140625 -1.34375 C 2.179688 -2.375 1.703125 -3.785156 1.703125 -5.578125 L 1.703125 -15.34375 L 5.953125 -15.34375 L 5.953125 -6.328125 C 5.960938 -5.421875 6.207031 -4.703125 6.6875 -4.171875 C 7.164062 -3.648438 7.804688 -3.390625 8.609375 -3.390625 C 9.378906 -3.390625 10.0625 -3.65625 10.65625 -4.1875 C 11.25 -4.726562 11.539062 -5.507812 11.53125 -6.53125 Z M 11.53125 -6.53125 "/></g></g></g><g fill="#ffffff" fill-opacity="1"><g transform="translate(266.486417, 197.136004)"><g><path d="M 1.703125 0 L 1.703125 -15.34375 L 5.953125 -15.34375 L 5.953125 0 Z M 3.828125 -17.3125 C 3.203125 -17.3125 2.660156 -17.523438 2.203125 -17.953125 C 1.753906 -18.378906 1.53125 -18.882812 1.53125 -19.46875 C 1.53125 -20.0625 1.753906 -20.566406 2.203125 -20.984375 C 2.660156 -21.410156 3.203125 -21.625 3.828125 -21.625 C 4.460938 -21.625 5.003906 -21.410156 5.453125 -20.984375 C 5.910156 -20.566406 6.140625 -20.0625 6.140625 -19.46875 C 6.140625 -18.882812 5.910156 -18.378906 5.453125 -17.953125 C 5.003906 -17.523438 4.460938 -17.3125 3.828125 -17.3125 Z M 3.828125 -17.3125 "/></g></g></g><g fill="#ffffff" fill-opacity="1"><g transform="translate(281.982729, 197.136004)"><g><path d="M 14.46875 -10.96875 L 10.5625 -10.734375 C 10.457031 -11.222656 10.1875 -11.644531 9.75 -12 C 9.320312 -12.351562 8.738281 -12.53125 8 -12.53125 C 7.34375 -12.53125 6.785156 -12.390625 6.328125 -12.109375 C 5.867188 -11.835938 5.644531 -11.46875 5.65625 -11 C 5.644531 -10.632812 5.785156 -10.328125 6.078125 -10.078125 C 6.378906 -9.828125 6.882812 -9.625 7.59375 -9.46875 L 10.375 -8.90625 C 13.320312 -8.300781 14.800781 -6.914062 14.8125 -4.75 C 14.8125 -3.75 14.515625 -2.867188 13.921875 -2.109375 C 13.335938 -1.347656 12.53125 -0.753906 11.5 -0.328125 C 10.476562 0.0859375 9.304688 0.296875 7.984375 0.296875 C 5.953125 0.296875 4.332031 -0.125 3.125 -0.96875 C 1.914062 -1.820312 1.210938 -2.976562 1.015625 -4.4375 L 5.203125 -4.671875 C 5.335938 -4.035156 5.644531 -3.554688 6.125 -3.234375 C 6.601562 -2.921875 7.222656 -2.765625 7.984375 -2.765625 C 8.734375 -2.765625 9.335938 -2.910156 9.796875 -3.203125 C 10.253906 -3.492188 10.484375 -3.867188 10.484375 -4.328125 C 10.460938 -5.085938 9.804688 -5.597656 8.515625 -5.859375 L 5.859375 -6.375 C 2.890625 -6.96875 1.410156 -8.429688 1.421875 -10.765625 C 1.421875 -12.242188 2.015625 -13.410156 3.203125 -14.265625 C 4.390625 -15.117188 5.96875 -15.546875 7.9375 -15.546875 C 9.875 -15.546875 11.398438 -15.132812 12.515625 -14.3125 C 13.628906 -13.488281 14.28125 -12.375 14.46875 -10.96875 Z M 14.46875 -10.96875 "/></g></g></g></svg>